<svg width="112" height="56" viewBox="34 35 114 56" fill="none" xmlns="http://www.w3.org/2000/svg">
<path d="M98.15 90.99L82.03 76.66C76.95 72.15 76.5 64.38 81.01 59.3L81.38 58.88L101.94 77.15L128.8 46.46C133.43 41.17 141.48 40.63 146.77 45.26L146.86 45.34L107.43 90.41C105.04 93.14 100.88 93.41 98.16 90.99H98.15Z" fill="#71D2C1"/>
<path d="M85.01 37.78L101.13 52.11C106.21 56.62 106.66 64.39 102.15 69.47L101.78 69.89L81.22 51.62L54.36 82.31C49.73 87.6 41.68 88.14 36.39 83.51L36.3 83.43L75.73 38.36C78.12 35.63 82.28 35.36 85 37.78H85.01Z" fill="#076293"/>
</svg>
