<svg width="372" height="172" viewBox="0 0 372 172" fill="none" xmlns="http://www.w3.org/2000/svg">
<g clip-path="url(#clip0_10120_413)">
<path d="M205.89 2.36C208.77 3.93 211.04 6.08 212.69 8.81C214.34 11.54 215.16 14.61 215.16 18.01C215.16 21.41 214.33 24.54 212.69 27.31C211.04 30.08 208.77 32.26 205.89 33.86C203.01 35.46 199.78 36.26 196.21 36.26C192.64 36.26 189.42 35.47 186.54 33.88C183.66 32.3 181.39 30.11 179.74 27.33C178.09 24.55 177.27 21.44 177.27 18C177.27 14.56 178.09 11.53 179.74 8.8C181.39 6.07 183.66 3.92 186.54 2.35C189.42 0.78 192.65 0 196.21 0C199.77 0 203 0.78 205.89 2.35V2.36ZM191.49 9.11C190.01 10.01 188.83 11.25 187.96 12.84C187.09 14.42 186.66 16.16 186.66 18.07C186.66 19.98 187.1 21.76 187.99 23.34C188.87 24.92 190.05 26.17 191.52 27.09C192.99 28.01 194.59 28.47 196.32 28.47C198.05 28.47 199.65 28.01 201.09 27.09C202.54 26.17 203.68 24.92 204.52 23.34C205.35 21.76 205.77 20 205.77 18.07C205.77 16.14 205.35 14.43 204.52 12.84C203.69 11.26 202.54 10.01 201.09 9.11C199.64 8.21 198.05 7.76 196.32 7.76C194.59 7.76 192.98 8.21 191.49 9.11Z" fill="#D9D9D9"/>
<path d="M205.89 137.6C208.77 139.17 211.04 141.32 212.69 144.05C214.34 146.78 215.16 149.85 215.16 153.25C215.16 156.65 214.33 159.78 212.69 162.55C211.04 165.32 208.77 167.5 205.89 169.1C203.01 170.7 199.78 171.5 196.21 171.5C192.64 171.5 189.42 170.71 186.54 169.12C183.66 167.54 181.39 165.35 179.74 162.57C178.09 159.79 177.27 156.68 177.27 153.24C177.27 149.8 178.09 146.77 179.74 144.04C181.39 141.31 183.66 139.16 186.54 137.59C189.42 136.02 192.65 135.24 196.21 135.24C199.77 135.24 203 136.02 205.89 137.59V137.6ZM191.49 144.35C190.01 145.25 188.83 146.49 187.96 148.08C187.09 149.66 186.66 151.4 186.66 153.31C186.66 155.22 187.1 157 187.99 158.58C188.87 160.16 190.05 161.41 191.52 162.33C192.99 163.25 194.59 163.71 196.32 163.71C198.05 163.71 199.65 163.25 201.09 162.33C202.54 161.41 203.68 160.16 204.52 158.58C205.35 157 205.77 155.24 205.77 153.31C205.77 151.38 205.35 149.67 204.52 148.08C203.69 146.5 202.54 145.25 201.09 144.35C199.64 143.45 198.05 143 196.32 143C194.59 143 192.98 143.45 191.49 144.35Z" fill="#D9D9D9"/>
<path d="M192.665 91.0754L176.545 76.7454C171.465 72.2354 171.015 64.4654 175.525 59.3854L175.895 58.9654L196.455 77.2354L223.315 46.5454C227.945 41.2554 235.995 40.7154 241.285 45.3454L241.375 45.4254L201.945 90.4954C199.555 93.2254 195.395 93.4954 192.675 91.0754H192.665Z" fill="#71D2C1"/>
<path d="M179.525 37.8654L195.645 52.1954C200.725 56.7054 201.175 64.4754 196.665 69.5554L196.295 69.9754L175.735 51.7054L148.875 82.3954C144.245 87.6854 136.195 88.2254 130.905 83.5954L130.815 83.5154L170.245 38.4454C172.635 35.7154 176.795 35.4454 179.515 37.8654H179.525Z" fill="#076293"/>
<path d="M169.93 105.36C168.16 104.58 166.35 104.19 164.48 104.19C162.01 104.19 159.75 104.79 157.68 105.99C155.61 107.19 153.98 108.82 152.78 110.87C151.58 112.92 150.98 115.18 150.98 117.64C150.98 120.1 151.58 122.32 152.78 124.39C153.98 126.46 155.61 128.09 157.68 129.29C159.75 130.49 162.01 131.09 164.48 131.09C166.31 131.09 168.11 130.71 169.88 129.97C171.65 129.22 173.21 128.2 174.58 126.89L177.48 130.04C175.71 131.77 173.66 133.13 171.33 134.12C169 135.11 166.63 135.59 164.23 135.59C160.9 135.59 157.85 134.8 155.08 133.21C152.31 131.63 150.13 129.47 148.53 126.73C146.93 124 146.13 120.98 146.13 117.68C146.13 114.38 146.94 111.42 148.55 108.7C150.17 105.98 152.38 103.84 155.17 102.27C157.97 100.7 161.05 99.92 164.42 99.92C166.85 99.92 169.21 100.38 171.5 101.3C173.78 102.22 175.76 103.51 177.42 105.18L174.57 108.63C173.24 107.23 171.69 106.14 169.92 105.36H169.93Z" fill="#71D2C1"/>
<path d="M182.07 100.24H206.37V104.59H186.87V115.39H204.32V119.74H186.87V130.89H206.97V135.24H182.07V100.24Z" fill="#71D2C1"/>
<path d="M236 135.24L229.05 124.24C228.25 124.31 227.6 124.34 227.1 124.34H218.2V135.24H213.4V100.24H227.1C231.53 100.24 234.96 101.26 237.37 103.32C239.79 105.37 240.99 108.28 240.99 112.04C240.99 114.87 240.33 117.26 239.02 119.19C237.7 121.12 235.81 122.52 233.35 123.39L241.5 135.24H236ZM227.1 119.99C230.1 119.99 232.4 119.33 234 118.01C235.6 116.69 236.4 114.75 236.4 112.19C236.4 109.63 235.6 107.8 234 106.51C232.4 105.23 230.1 104.59 227.1 104.59H218.2V119.99H227.1Z" fill="#71D2C1"/>
<path d="M243.95 100.24H271.3V104.64H260V135.24H255.2V104.64H243.95V100.24Z" fill="#71D2C1"/>
<path d="M283.41 128.51C285.19 130.33 287.65 131.24 290.79 131.24C293.93 131.24 296.32 130.33 298.09 128.51C299.86 126.69 300.74 124.17 300.74 120.94V100.24H305.54V120.94C305.54 125.51 304.23 129.09 301.62 131.69C299 134.29 295.4 135.59 290.79 135.59C286.18 135.59 282.52 134.29 279.89 131.69C277.26 129.09 275.94 125.51 275.94 120.94V100.24H280.74V120.94C280.74 124.17 281.63 126.7 283.41 128.51Z" fill="#71D2C1"/>
<path d="M328.18 105.21C326.43 104.69 324.82 104.44 323.35 104.44C321.32 104.44 319.69 104.83 318.47 105.61C317.25 106.39 316.64 107.47 316.64 108.84C316.64 110.07 317.01 111.08 317.74 111.86C318.47 112.64 319.37 113.26 320.44 113.71C321.51 114.16 322.99 114.69 324.89 115.28C327.26 116.01 329.17 116.71 330.64 117.38C332.11 118.05 333.36 119.04 334.39 120.36C335.42 121.68 335.94 123.42 335.94 125.59C335.94 127.59 335.4 129.34 334.32 130.84C333.24 132.34 331.72 133.5 329.77 134.32C327.82 135.14 325.58 135.54 323.05 135.54C320.52 135.54 317.98 135.04 315.55 134.04C313.12 133.04 311.02 131.71 309.25 130.04L311.4 125.89C313.07 127.52 314.94 128.78 317.02 129.66C319.1 130.54 321.13 130.99 323.1 130.99C325.43 130.99 327.27 130.53 328.63 129.61C329.98 128.69 330.65 127.45 330.65 125.88C330.65 124.65 330.28 123.63 329.55 122.83C328.82 122.03 327.89 121.4 326.77 120.93C325.65 120.46 324.15 119.95 322.25 119.38C319.92 118.68 318.02 118 316.55 117.33C315.08 116.66 313.84 115.68 312.83 114.38C311.81 113.08 311.3 111.36 311.3 109.23C311.3 107.36 311.82 105.71 312.85 104.28C313.88 102.85 315.33 101.75 317.2 100.98C319.07 100.21 321.23 99.83 323.7 99.83C325.8 99.83 327.86 100.14 329.87 100.75C331.89 101.37 333.68 102.19 335.25 103.23L333.25 107.53C331.62 106.5 329.92 105.72 328.17 105.21H328.18Z" fill="#71D2C1"/>
<path d="M62.46 103.41C64.93 105.56 66.16 108.59 66.16 112.49C66.16 116.62 64.93 119.83 62.46 122.11C59.99 124.39 56.53 125.53 52.06 125.53H45.81V135.23H36.66V100.18H52.06C56.53 100.18 59.99 101.25 62.46 103.4V103.41ZM55.93 116.84C56.95 115.91 57.46 114.56 57.46 112.79C57.46 111.02 56.95 109.78 55.93 108.87C54.91 107.95 53.47 107.49 51.6 107.49H45.8V118.24H51.6C53.47 118.24 54.91 117.77 55.93 116.84Z" fill="#076293"/>
<path d="M91.5001 135.24L86.4001 125.54H79.6001V135.24H70.4501V100.19H86.2001C90.8301 100.19 94.4201 101.26 96.9701 103.41C99.5201 105.56 100.8 108.59 100.8 112.49C100.8 115.12 100.27 117.4 99.2001 119.32C98.1301 121.24 96.5801 122.73 94.5501 123.79L101.85 135.24H91.5001ZM79.6001 118.24H86.2501C88.1201 118.24 89.5601 117.77 90.5801 116.84C91.6001 115.91 92.1001 114.56 92.1001 112.79C92.1001 111.02 91.5901 109.78 90.5801 108.87C89.5601 107.95 88.1201 107.49 86.2501 107.49H79.6001V118.24Z" fill="#076293"/>
<path d="M132.81 101.99C135.69 103.56 137.96 105.71 139.61 108.44C141.26 111.17 142.08 114.24 142.08 117.64C142.08 121.04 141.25 124.17 139.61 126.94C137.96 129.71 135.69 131.89 132.81 133.49C129.93 135.09 126.7 135.89 123.13 135.89C119.56 135.89 116.34 135.1 113.46 133.51C110.58 131.93 108.31 129.74 106.66 126.96C105.01 124.18 104.19 121.07 104.19 117.63C104.19 114.19 105.01 111.16 106.66 108.43C108.31 105.7 110.58 103.55 113.46 101.98C116.34 100.41 119.57 99.63 123.13 99.63C126.69 99.63 129.92 100.41 132.81 101.98V101.99ZM118.41 108.74C116.93 109.64 115.75 110.88 114.88 112.47C114.01 114.05 113.58 115.79 113.58 117.7C113.58 119.61 114.02 121.39 114.91 122.97C115.79 124.55 116.97 125.8 118.44 126.72C119.91 127.64 121.51 128.1 123.24 128.1C124.97 128.1 126.57 127.64 128.01 126.72C129.46 125.8 130.6 124.55 131.44 122.97C132.27 121.39 132.69 119.63 132.69 117.7C132.69 115.77 132.27 114.06 131.44 112.47C130.61 110.89 129.46 109.64 128.01 108.74C126.56 107.84 124.97 107.39 123.24 107.39C121.51 107.39 119.9 107.84 118.41 108.74Z" fill="#076293"/>
<path d="M369.87 127.6C368.3 130.48 366.15 132.75 363.42 134.4C360.69 136.05 357.62 136.87 354.22 136.87C350.82 136.87 347.69 136.04 344.92 134.4C342.15 132.75 339.97 130.48 338.37 127.6C336.77 124.72 335.97 121.49 335.97 117.92C335.97 114.35 336.76 111.13 338.35 108.25C339.93 105.37 342.12 103.1 344.9 101.45C347.68 99.8 350.79 98.98 354.23 98.98C357.67 98.98 360.7 99.8 363.43 101.45C366.16 103.1 368.31 105.37 369.88 108.25C371.45 111.13 372.23 114.36 372.23 117.92C372.23 121.48 371.45 124.71 369.88 127.6H369.87ZM363.12 113.2C362.22 111.72 360.98 110.54 359.39 109.67C357.81 108.8 356.07 108.37 354.16 108.37C352.25 108.37 350.47 108.81 348.89 109.7C347.31 110.58 346.06 111.76 345.14 113.23C344.22 114.7 343.76 116.3 343.76 118.03C343.76 119.76 344.22 121.36 345.14 122.8C346.06 124.25 347.31 125.39 348.89 126.23C350.47 127.06 352.23 127.48 354.16 127.48C356.09 127.48 357.8 127.06 359.39 126.23C360.97 125.4 362.22 124.25 363.12 122.8C364.02 121.35 364.47 119.76 364.47 118.03C364.47 116.3 364.02 114.69 363.12 113.2Z" fill="#D9D9D9"/>
<path d="M2.34999 118.81C3.91999 115.93 6.06999 113.66 8.79999 112.01C11.53 110.36 14.6 109.54 18 109.54C21.4 109.54 24.53 110.37 27.3 112.01C30.07 113.66 32.25 115.93 33.85 118.81C35.45 121.69 36.25 124.92 36.25 128.49C36.25 132.06 35.46 135.28 33.87 138.16C32.29 141.04 30.1 143.31 27.32 144.96C24.54 146.61 21.43 147.43 17.99 147.43C14.55 147.43 11.52 146.61 8.78999 144.96C6.05999 143.31 3.90999 141.04 2.33999 138.16C0.76999 135.28 -0.0100098 132.05 -0.0100098 128.49C-0.0100098 124.93 0.76999 121.7 2.33999 118.81H2.34999ZM9.09999 133.21C9.99999 134.69 11.24 135.87 12.83 136.74C14.41 137.61 16.15 138.04 18.06 138.04C19.97 138.04 21.75 137.6 23.33 136.71C24.91 135.83 26.16 134.65 27.08 133.18C28 131.71 28.46 130.11 28.46 128.38C28.46 126.65 28 125.05 27.08 123.61C26.16 122.16 24.91 121.02 23.33 120.18C21.75 119.35 19.99 118.93 18.06 118.93C16.13 118.93 14.42 119.35 12.83 120.18C11.25 121.01 9.99999 122.16 9.09999 123.61C8.19999 125.06 7.74999 126.65 7.74999 128.38C7.74999 130.11 8.19999 131.72 9.09999 133.21Z" fill="#D9D9D9"/>
</g>
<defs>
<clipPath id="clip0_10120_413">
<rect width="372" height="172" fill="white"/>
</clipPath>
</defs>
</svg>
