<svg width="496" height="129" viewBox="0 0 496 129" fill="none" xmlns="http://www.w3.org/2000/svg">
<path d="M98.1499 90.99L82.0299 76.66C76.9499 72.15 76.4999 64.38 81.0099 59.3L81.3799 58.88L101.94 77.15L128.8 46.46C133.43 41.17 141.48 40.63 146.77 45.26L146.86 45.34L107.43 90.41C105.04 93.14 100.88 93.41 98.1599 90.99H98.1499Z" fill="#71D2C1"/>
<path d="M85.0101 37.78L101.13 52.11C106.21 56.62 106.66 64.39 102.15 69.47L101.78 69.89L81.2201 51.62L54.3601 82.31C49.7301 87.6 41.68 88.14 36.39 83.51L36.3 83.43L75.7301 38.36C78.1201 35.63 82.28 35.36 85 37.78H85.0101Z" fill="#076293"/>
<path d="M292.87 41.36C291.1 40.58 289.29 40.19 287.42 40.19C284.95 40.19 282.69 40.79 280.62 41.99C278.55 43.19 276.92 44.82 275.72 46.87C274.52 48.92 273.92 51.18 273.92 53.64C273.92 56.1 274.52 58.32 275.72 60.39C276.92 62.46 278.55 64.09 280.62 65.29C282.69 66.49 284.95 67.09 287.42 67.09C289.25 67.09 291.05 66.71 292.82 65.97C294.59 65.22 296.15 64.2 297.52 62.89L300.42 66.04C298.65 67.77 296.6 69.13 294.27 70.12C291.94 71.11 289.57 71.59 287.17 71.59C283.84 71.59 280.79 70.8 278.02 69.21C275.25 67.63 273.07 65.47 271.47 62.73C269.87 60 269.07 56.98 269.07 53.68C269.07 50.38 269.88 47.42 271.49 44.7C273.11 41.98 275.32 39.84 278.11 38.27C280.91 36.7 283.99 35.92 287.36 35.92C289.79 35.92 292.15 36.38 294.44 37.3C296.72 38.22 298.7 39.51 300.36 41.18L297.51 44.63C296.18 43.23 294.63 42.14 292.86 41.36H292.87Z" fill="#71D2C1"/>
<path d="M305.01 36.24H329.31V40.59H309.81V51.39H327.26V55.74H309.81V66.89H329.91V71.24H305.01V36.24Z" fill="#71D2C1"/>
<path d="M358.94 71.24L351.99 60.24C351.19 60.31 350.54 60.34 350.04 60.34H341.14V71.24H336.34V36.24H350.04C354.47 36.24 357.9 37.26 360.31 39.32C362.73 41.37 363.93 44.28 363.93 48.04C363.93 50.87 363.27 53.26 361.96 55.19C360.64 57.12 358.75 58.52 356.29 59.39L364.44 71.24H358.94ZM350.04 55.99C353.04 55.99 355.34 55.33 356.94 54.01C358.54 52.69 359.34 50.75 359.34 48.19C359.34 45.63 358.54 43.8 356.94 42.51C355.34 41.23 353.04 40.59 350.04 40.59H341.14V55.99H350.04Z" fill="#71D2C1"/>
<path d="M366.89 36.24H394.24V40.64H382.94V71.24H378.14V40.64H366.89V36.24Z" fill="#71D2C1"/>
<path d="M406.35 64.51C408.13 66.33 410.59 67.24 413.73 67.24C416.87 67.24 419.26 66.33 421.03 64.51C422.8 62.69 423.68 60.17 423.68 56.94V36.24H428.48V56.94C428.48 61.51 427.17 65.09 424.56 67.69C421.94 70.29 418.34 71.59 413.73 71.59C409.12 71.59 405.46 70.29 402.83 67.69C400.2 65.09 398.88 61.51 398.88 56.94V36.24H403.68V56.94C403.68 60.17 404.57 62.7 406.35 64.51Z" fill="#71D2C1"/>
<path d="M451.12 41.21C449.37 40.69 447.76 40.44 446.29 40.44C444.26 40.44 442.63 40.83 441.41 41.61C440.19 42.39 439.58 43.47 439.58 44.84C439.58 46.07 439.95 47.08 440.68 47.86C441.41 48.64 442.31 49.26 443.38 49.71C444.45 50.16 445.93 50.69 447.83 51.28C450.2 52.01 452.11 52.71 453.58 53.38C455.05 54.05 456.3 55.04 457.33 56.36C458.36 57.68 458.88 59.42 458.88 61.59C458.88 63.59 458.34 65.34 457.26 66.84C456.18 68.34 454.66 69.5 452.71 70.32C450.76 71.14 448.52 71.54 445.99 71.54C443.46 71.54 440.92 71.04 438.49 70.04C436.06 69.04 433.96 67.71 432.19 66.04L434.34 61.89C436.01 63.52 437.88 64.78 439.96 65.66C442.04 66.54 444.07 66.99 446.04 66.99C448.37 66.99 450.21 66.53 451.57 65.61C452.92 64.69 453.59 63.45 453.59 61.88C453.59 60.65 453.22 59.63 452.49 58.83C451.76 58.03 450.83 57.4 449.71 56.93C448.59 56.46 447.09 55.95 445.19 55.38C442.86 54.68 440.96 54 439.49 53.33C438.02 52.66 436.78 51.68 435.77 50.38C434.75 49.08 434.24 47.36 434.24 45.23C434.24 43.36 434.76 41.71 435.79 40.28C436.82 38.85 438.27 37.75 440.14 36.98C442.01 36.21 444.17 35.83 446.64 35.83C448.74 35.83 450.8 36.14 452.81 36.75C454.83 37.37 456.62 38.19 458.19 39.23L456.19 43.53C454.56 42.5 452.86 41.72 451.11 41.21H451.12Z" fill="#71D2C1"/>
<path d="M185.4 39.41C187.87 41.56 189.1 44.59 189.1 48.49C189.1 52.62 187.87 55.83 185.4 58.11C182.93 60.39 179.47 61.53 175 61.53H168.75V71.23H159.6V36.18H175C179.47 36.18 182.93 37.25 185.4 39.4V39.41ZM178.87 52.84C179.89 51.91 180.4 50.56 180.4 48.79C180.4 47.02 179.89 45.78 178.87 44.87C177.85 43.95 176.41 43.49 174.54 43.49H168.74V54.24H174.54C176.41 54.24 177.85 53.77 178.87 52.84Z" fill="#076293"/>
<path d="M214.44 71.24L209.34 61.54H202.54V71.24H193.39V36.19H209.14C213.77 36.19 217.36 37.26 219.91 39.41C222.46 41.56 223.74 44.59 223.74 48.49C223.74 51.12 223.21 53.4 222.14 55.32C221.07 57.24 219.52 58.73 217.49 59.79L224.79 71.24H214.44ZM202.54 54.24H209.19C211.06 54.24 212.5 53.77 213.52 52.84C214.54 51.91 215.04 50.56 215.04 48.79C215.04 47.02 214.53 45.78 213.52 44.87C212.5 43.95 211.06 43.49 209.19 43.49H202.54V54.24Z" fill="#076293"/>
<path d="M255.75 37.99C258.63 39.56 260.9 41.71 262.55 44.44C264.2 47.17 265.02 50.24 265.02 53.64C265.02 57.04 264.19 60.17 262.55 62.94C260.9 65.71 258.63 67.89 255.75 69.49C252.87 71.09 249.64 71.89 246.07 71.89C242.5 71.89 239.28 71.1 236.4 69.51C233.52 67.93 231.25 65.74 229.6 62.96C227.95 60.18 227.13 57.07 227.13 53.63C227.13 50.19 227.95 47.16 229.6 44.43C231.25 41.7 233.52 39.55 236.4 37.98C239.28 36.41 242.51 35.63 246.07 35.63C249.63 35.63 252.86 36.41 255.75 37.98V37.99ZM241.35 44.74C239.87 45.64 238.69 46.88 237.82 48.47C236.95 50.05 236.52 51.79 236.52 53.7C236.52 55.61 236.96 57.39 237.85 58.97C238.73 60.55 239.91 61.8 241.38 62.72C242.85 63.64 244.45 64.1 246.18 64.1C247.91 64.1 249.51 63.64 250.95 62.72C252.4 61.8 253.54 60.55 254.38 58.97C255.21 57.39 255.63 55.63 255.63 53.7C255.63 51.77 255.21 50.06 254.38 48.47C253.55 46.89 252.4 45.64 250.95 44.74C249.5 43.84 247.91 43.39 246.18 43.39C244.45 43.39 242.84 43.84 241.35 44.74Z" fill="#076293"/>
<path d="M167.79 83.68C167.45 83.22 167.03 82.88 166.53 82.65C166.03 82.42 165.51 82.31 164.96 82.31C164.33 82.31 163.75 82.44 163.22 82.69C162.69 82.95 162.24 83.29 161.85 83.72C161.47 84.15 161.17 84.65 160.95 85.22C160.74 85.79 160.63 86.39 160.63 87C160.63 87.66 160.74 88.28 160.95 88.85C161.16 89.42 161.46 89.92 161.84 90.34C162.22 90.76 162.67 91.09 163.2 91.34C163.73 91.59 164.31 91.71 164.95 91.71C165.64 91.71 166.26 91.57 166.81 91.3C167.35 91.03 167.83 90.64 168.23 90.12L169.24 90.97C168.73 91.65 168.11 92.15 167.39 92.47C166.67 92.79 165.86 92.95 164.95 92.95C164.14 92.95 163.38 92.8 162.68 92.5C161.98 92.2 161.36 91.79 160.85 91.26C160.33 90.73 159.93 90.11 159.63 89.38C159.34 88.66 159.19 87.86 159.19 87C159.19 86.14 159.33 85.39 159.61 84.66C159.89 83.93 160.29 83.31 160.8 82.77C161.31 82.23 161.92 81.81 162.62 81.51C163.32 81.2 164.1 81.05 164.94 81.05C165.71 81.05 166.45 81.19 167.16 81.47C167.87 81.75 168.46 82.2 168.94 82.83L167.77 83.68H167.79Z" fill="#076293"/>
<path d="M171.7 81.35H178.82V82.6H173.04V86.15H178.43V87.4H173.04V91.43H179.1V92.68H171.69V81.35H171.7Z" fill="#076293"/>
<path d="M181.76 81.35H184.66C185.2 81.35 185.75 81.38 186.28 81.45C186.82 81.51 187.3 81.65 187.73 81.87C188.16 82.08 188.5 82.4 188.77 82.81C189.04 83.22 189.17 83.78 189.17 84.48C189.17 85.31 188.92 85.98 188.42 86.5C187.92 87.01 187.22 87.34 186.34 87.48L189.56 92.7H187.91L184.84 87.61H183.11V92.7H181.77V81.37L181.76 81.35ZM183.1 86.34H184.3C184.67 86.34 185.06 86.33 185.46 86.31C185.86 86.29 186.23 86.22 186.56 86.1C186.89 85.98 187.17 85.8 187.39 85.55C187.61 85.3 187.72 84.94 187.72 84.47C187.72 84.06 187.64 83.74 187.48 83.49C187.32 83.24 187.11 83.06 186.85 82.92C186.59 82.79 186.3 82.7 185.97 82.66C185.64 82.62 185.32 82.6 184.99 82.6H183.1V86.34Z" fill="#076293"/>
<path d="M199.42 82.59H195.68V92.67H194.34V82.59H190.6V81.34H199.43V82.59H199.42Z" fill="#076293"/>
<path d="M201.58 81.35H202.92V92.68H201.58V81.35Z" fill="#076293"/>
<path d="M206.32 81.35H213.34V82.6H207.66V86.34H212.94V87.59H207.66V92.68H206.32V81.35Z" fill="#076293"/>
<path d="M215.79 81.35H217.13V92.68H215.79V81.35Z" fill="#076293"/>
<path d="M228.46 83.68C228.12 83.22 227.7 82.88 227.2 82.65C226.7 82.42 226.18 82.31 225.63 82.31C225 82.31 224.42 82.44 223.89 82.69C223.36 82.95 222.91 83.29 222.52 83.72C222.14 84.15 221.84 84.65 221.62 85.22C221.41 85.79 221.3 86.39 221.3 87C221.3 87.66 221.41 88.28 221.62 88.85C221.83 89.42 222.13 89.92 222.51 90.34C222.89 90.76 223.34 91.09 223.87 91.34C224.4 91.59 224.98 91.71 225.62 91.71C226.31 91.71 226.93 91.57 227.48 91.3C228.02 91.03 228.5 90.64 228.9 90.12L229.91 90.97C229.4 91.65 228.78 92.15 228.06 92.47C227.34 92.79 226.53 92.95 225.62 92.95C224.81 92.95 224.05 92.8 223.35 92.5C222.65 92.2 222.03 91.79 221.52 91.26C221 90.73 220.6 90.11 220.3 89.38C220.01 88.66 219.86 87.86 219.86 87C219.86 86.14 220 85.39 220.28 84.66C220.56 83.93 220.96 83.31 221.47 82.77C221.98 82.23 222.59 81.81 223.29 81.51C223.99 81.2 224.77 81.05 225.61 81.05C226.38 81.05 227.12 81.19 227.83 81.47C228.54 81.75 229.13 82.2 229.61 82.83L228.44 83.68H228.46Z" fill="#076293"/>
<path d="M236.05 81.35H237.31L242.13 92.68H240.56L239.41 89.9H233.75L232.58 92.68H231.06L236.05 81.35ZM236.66 83.08H236.63L234.28 88.65H238.9L236.66 83.08Z" fill="#076293"/>
<path d="M250.33 82.59H246.59V92.67H245.25V82.59H241.51V81.34H250.34V82.59H250.33Z" fill="#076293"/>
<path d="M252.49 81.35H253.83V92.68H252.49V81.35Z" fill="#076293"/>
<path d="M262.49 92.96C261.63 92.96 260.83 92.81 260.11 92.51C259.39 92.21 258.77 91.8 258.24 91.27C257.71 90.74 257.3 90.11 257.01 89.38C256.72 88.65 256.57 87.86 256.57 87C256.57 86.14 256.72 85.35 257.01 84.62C257.3 83.89 257.71 83.26 258.24 82.73C258.77 82.2 259.39 81.79 260.11 81.49C260.83 81.19 261.62 81.04 262.49 81.04C263.36 81.04 264.15 81.19 264.87 81.49C265.59 81.79 266.21 82.2 266.74 82.73C267.27 83.26 267.68 83.89 267.97 84.62C268.26 85.35 268.41 86.14 268.41 87C268.41 87.86 268.26 88.65 267.97 89.38C267.68 90.11 267.27 90.74 266.74 91.27C266.21 91.8 265.59 92.21 264.87 92.51C264.15 92.81 263.36 92.96 262.49 92.96ZM262.49 91.71C263.15 91.71 263.76 91.59 264.31 91.34C264.86 91.09 265.33 90.76 265.73 90.33C266.12 89.9 266.43 89.4 266.65 88.83C266.87 88.26 266.98 87.65 266.98 87C266.98 86.35 266.87 85.74 266.65 85.17C266.43 84.6 266.12 84.1 265.73 83.67C265.33 83.24 264.86 82.91 264.31 82.66C263.76 82.41 263.15 82.29 262.49 82.29C261.83 82.29 261.22 82.41 260.67 82.66C260.12 82.91 259.65 83.24 259.25 83.67C258.85 84.1 258.55 84.6 258.33 85.17C258.11 85.74 258 86.35 258 87C258 87.65 258.11 88.26 258.33 88.83C258.55 89.4 258.86 89.9 259.25 90.33C259.64 90.76 260.12 91.09 260.67 91.34C261.22 91.59 261.82 91.71 262.49 91.71Z" fill="#076293"/>
<path d="M271.15 81.35H272.85L279.41 90.76H279.44V81.35H280.78V92.68H279.08L272.52 83.27H272.49V92.68H271.15V81.35Z" fill="#076293"/>
<path d="M297.36 81.96H293.38V92.67H291.95V81.96H287.97V80.63H297.35V81.96H297.36Z" fill="#076293"/>
<path d="M299.66 80.64H301.09V85.74H307.52V80.64H308.95V92.68H307.52V87.07H301.09V92.68H299.66V80.64Z" fill="#076293"/>
<path d="M316.45 80.64H317.79L322.91 92.68H321.24L320.02 89.72H314L312.76 92.68H311.14L316.44 80.64H316.45ZM317.1 82.48H317.07L314.57 88.4H319.48L317.1 82.48Z" fill="#076293"/>
<path d="M331.63 81.96H327.65V92.67H326.22V81.96H322.24V80.63H331.62V81.96H331.63Z" fill="#076293"/>
<path d="M339.27 80.64H342.94C343.44 80.64 343.93 80.69 344.4 80.79C344.88 80.89 345.3 81.06 345.68 81.29C346.05 81.52 346.36 81.83 346.59 82.2C346.82 82.57 346.94 83.04 346.94 83.59C346.94 84.29 346.75 84.87 346.37 85.33C345.99 85.79 345.48 86.12 344.83 86.31V86.34C345.22 86.37 345.58 86.47 345.91 86.64C346.24 86.8 346.53 87.02 346.78 87.28C347.02 87.54 347.21 87.84 347.35 88.19C347.49 88.54 347.55 88.91 347.55 89.3C347.55 89.97 347.41 90.52 347.13 90.95C346.85 91.38 346.49 91.72 346.04 91.98C345.59 92.23 345.09 92.41 344.53 92.52C343.97 92.62 343.41 92.67 342.86 92.67H339.27V80.63V80.64ZM340.7 85.74H342.67C343.01 85.74 343.34 85.72 343.66 85.67C343.98 85.62 344.27 85.53 344.54 85.39C344.81 85.25 345.01 85.05 345.17 84.79C345.33 84.54 345.41 84.2 345.41 83.78C345.41 83.41 345.34 83.1 345.19 82.87C345.04 82.64 344.85 82.45 344.6 82.32C344.36 82.18 344.08 82.09 343.77 82.04C343.46 81.99 343.14 81.96 342.83 81.96H340.71V85.73L340.7 85.74ZM340.7 91.35H343.11C343.46 91.35 343.81 91.31 344.16 91.24C344.51 91.17 344.82 91.05 345.09 90.88C345.37 90.72 345.59 90.5 345.76 90.23C345.93 89.96 346.01 89.64 346.01 89.25C346.01 88.83 345.93 88.48 345.76 88.2C345.6 87.92 345.38 87.69 345.11 87.52C344.84 87.35 344.54 87.23 344.19 87.16C343.84 87.09 343.49 87.06 343.13 87.06H340.68V91.34L340.7 91.35Z" fill="#076293"/>
<path d="M359.62 88.08C359.62 88.74 359.54 89.36 359.37 89.95C359.21 90.54 358.95 91.06 358.59 91.51C358.23 91.96 357.77 92.31 357.19 92.58C356.61 92.85 355.91 92.98 355.08 92.98C354.25 92.98 353.55 92.85 352.97 92.58C352.39 92.31 351.92 91.96 351.57 91.51C351.21 91.06 350.95 90.54 350.79 89.95C350.63 89.36 350.54 88.74 350.54 88.08V80.63H351.97V87.87C351.97 88.36 352.02 88.83 352.12 89.28C352.22 89.73 352.39 90.14 352.63 90.49C352.87 90.84 353.18 91.12 353.58 91.33C353.98 91.54 354.47 91.65 355.08 91.65C355.69 91.65 356.18 91.54 356.58 91.33C356.98 91.12 357.29 90.84 357.53 90.49C357.77 90.14 357.94 89.74 358.04 89.28C358.14 88.83 358.19 88.36 358.19 87.87V80.63H359.62V88.08Z" fill="#076293"/>
<path d="M363.17 80.64H364.6V92.68H363.17V80.64Z" fill="#076293"/>
<path d="M368.2 80.64H369.63V91.35H375.14V92.68H368.2V80.64Z" fill="#076293"/>
<path d="M377.09 80.64H381.71C382.11 80.64 382.53 80.69 382.97 80.78C383.41 80.87 383.85 81.02 384.29 81.21C384.73 81.4 385.15 81.67 385.55 81.98C385.95 82.3 386.31 82.68 386.61 83.13C386.92 83.58 387.16 84.09 387.34 84.68C387.52 85.26 387.61 85.92 387.61 86.66C387.61 87.4 387.52 88.06 387.34 88.64C387.16 89.22 386.91 89.74 386.61 90.19C386.3 90.64 385.95 91.02 385.55 91.34C385.15 91.66 384.73 91.92 384.29 92.11C383.85 92.3 383.41 92.45 382.97 92.54C382.53 92.63 382.11 92.68 381.71 92.68H377.09V80.64ZM378.52 91.35H381.24C381.93 91.35 382.57 91.26 383.16 91.08C383.75 90.9 384.26 90.62 384.69 90.24C385.12 89.86 385.46 89.38 385.71 88.79C385.96 88.2 386.08 87.49 386.08 86.67C386.08 85.85 385.96 85.13 385.71 84.55C385.46 83.96 385.12 83.48 384.69 83.1C384.26 82.72 383.75 82.44 383.16 82.26C382.57 82.08 381.93 81.99 381.24 81.99H378.52V91.37V91.35Z" fill="#076293"/>
<path d="M396.23 82.76C395.99 82.38 395.67 82.09 395.28 81.92C394.88 81.75 394.47 81.66 394.04 81.66C393.72 81.66 393.41 81.7 393.11 81.78C392.8 81.86 392.53 81.98 392.29 82.14C392.05 82.3 391.85 82.51 391.7 82.77C391.55 83.03 391.48 83.34 391.48 83.69C391.48 83.96 391.52 84.2 391.61 84.41C391.7 84.62 391.83 84.81 392.03 84.98C392.22 85.15 392.48 85.31 392.81 85.46C393.14 85.61 393.54 85.75 394.02 85.9C394.48 86.05 394.94 86.21 395.37 86.38C395.81 86.55 396.19 86.76 396.53 87.03C396.87 87.3 397.13 87.62 397.33 88.01C397.53 88.4 397.63 88.89 397.63 89.48C397.63 90.07 397.51 90.6 397.27 91.04C397.03 91.48 396.72 91.85 396.33 92.14C395.94 92.43 395.49 92.64 394.98 92.79C394.47 92.93 393.94 93 393.4 93C393.05 93 392.7 92.97 392.35 92.91C392 92.85 391.66 92.75 391.34 92.62C391.02 92.49 390.71 92.32 390.43 92.11C390.15 91.9 389.9 91.64 389.7 91.34L390.92 90.34C391.18 90.78 391.54 91.12 392.01 91.34C392.47 91.57 392.97 91.68 393.49 91.68C393.8 91.68 394.11 91.63 394.42 91.54C394.73 91.45 395.01 91.32 395.26 91.14C395.51 90.96 395.71 90.75 395.87 90.49C396.03 90.23 396.11 89.93 396.11 89.59C396.11 89.22 396.05 88.91 395.92 88.68C395.8 88.45 395.6 88.25 395.34 88.08C395.08 87.91 394.75 87.76 394.35 87.62C393.95 87.48 393.49 87.33 392.96 87.14C392.53 87 392.13 86.85 391.77 86.67C391.41 86.49 391.09 86.28 390.83 86.02C390.57 85.76 390.35 85.46 390.2 85.1C390.05 84.74 389.97 84.32 389.97 83.82C389.97 83.24 390.08 82.74 390.31 82.31C390.54 81.88 390.84 81.52 391.23 81.23C391.62 80.94 392.05 80.72 392.54 80.58C393.03 80.43 393.54 80.36 394.07 80.36C394.75 80.36 395.37 80.46 395.93 80.67C396.49 80.88 396.99 81.25 397.43 81.77L396.26 82.79L396.23 82.76Z" fill="#076293"/>
<path d="M414 81.96H410.02V92.67H408.59V81.96H404.61V80.63H413.99V81.96H414Z" fill="#076293"/>
<path d="M416.29 80.64H419.37C419.95 80.64 420.52 80.67 421.1 80.74C421.67 80.81 422.18 80.95 422.64 81.18C423.1 81.41 423.46 81.74 423.75 82.18C424.03 82.62 424.17 83.21 424.17 83.96C424.17 84.84 423.9 85.56 423.37 86.1C422.84 86.64 422.1 86.99 421.16 87.14L424.58 92.68H422.83L419.57 87.27H417.73V92.68H416.3V80.64H416.29ZM417.72 85.94H419C419.4 85.94 419.81 85.93 420.23 85.91C420.65 85.89 421.05 85.81 421.4 85.69C421.76 85.57 422.05 85.37 422.28 85.1C422.51 84.83 422.63 84.45 422.63 83.95C422.63 83.52 422.55 83.17 422.38 82.91C422.21 82.65 421.99 82.45 421.71 82.31C421.43 82.17 421.12 82.07 420.78 82.03C420.43 81.98 420.09 81.96 419.73 81.96H417.72V85.94Z" fill="#076293"/>
<path d="M436.32 88.08C436.32 88.74 436.24 89.36 436.07 89.95C435.91 90.54 435.65 91.06 435.29 91.51C434.93 91.96 434.47 92.31 433.89 92.58C433.31 92.85 432.61 92.98 431.78 92.98C430.95 92.98 430.25 92.85 429.67 92.58C429.09 92.31 428.62 91.96 428.27 91.51C427.91 91.06 427.65 90.54 427.49 89.95C427.33 89.36 427.24 88.74 427.24 88.08V80.63H428.67V87.87C428.67 88.36 428.72 88.83 428.82 89.28C428.92 89.73 429.09 90.14 429.33 90.49C429.57 90.84 429.88 91.12 430.28 91.33C430.68 91.54 431.17 91.65 431.78 91.65C432.39 91.65 432.88 91.54 433.28 91.33C433.68 91.12 433.99 90.84 434.23 90.49C434.47 90.14 434.64 89.74 434.74 89.28C434.84 88.83 434.89 88.36 434.89 87.87V80.63H436.32V88.08Z" fill="#076293"/>
<path d="M445.58 82.76C445.34 82.38 445.02 82.09 444.63 81.92C444.23 81.75 443.82 81.66 443.39 81.66C443.07 81.66 442.76 81.7 442.46 81.78C442.15 81.86 441.88 81.98 441.64 82.14C441.4 82.3 441.2 82.51 441.05 82.77C440.9 83.03 440.83 83.34 440.83 83.69C440.83 83.96 440.87 84.2 440.96 84.41C441.05 84.62 441.18 84.81 441.38 84.98C441.57 85.15 441.83 85.31 442.16 85.46C442.49 85.61 442.89 85.75 443.37 85.9C443.83 86.05 444.29 86.21 444.72 86.38C445.16 86.55 445.54 86.76 445.88 87.03C446.22 87.3 446.48 87.62 446.68 88.01C446.88 88.4 446.98 88.89 446.98 89.48C446.98 90.07 446.86 90.6 446.62 91.04C446.38 91.48 446.07 91.85 445.68 92.14C445.29 92.43 444.84 92.64 444.33 92.79C443.82 92.93 443.29 93 442.75 93C442.4 93 442.05 92.97 441.7 92.91C441.35 92.85 441.01 92.75 440.69 92.62C440.37 92.49 440.06 92.32 439.78 92.11C439.5 91.9 439.25 91.64 439.05 91.34L440.27 90.34C440.53 90.78 440.89 91.12 441.36 91.34C441.82 91.57 442.32 91.68 442.84 91.68C443.15 91.68 443.46 91.63 443.77 91.54C444.08 91.45 444.36 91.32 444.61 91.14C444.86 90.96 445.06 90.75 445.22 90.49C445.38 90.23 445.46 89.93 445.46 89.59C445.46 89.22 445.4 88.91 445.27 88.68C445.15 88.45 444.95 88.25 444.69 88.08C444.43 87.91 444.1 87.76 443.7 87.62C443.3 87.48 442.84 87.33 442.31 87.14C441.88 87 441.48 86.85 441.12 86.67C440.76 86.49 440.44 86.28 440.18 86.02C439.92 85.76 439.7 85.46 439.55 85.1C439.4 84.74 439.32 84.32 439.32 83.82C439.32 83.24 439.43 82.74 439.66 82.31C439.89 81.88 440.19 81.52 440.58 81.23C440.97 80.94 441.4 80.72 441.89 80.58C442.38 80.43 442.89 80.36 443.42 80.36C444.1 80.36 444.72 80.46 445.28 80.67C445.84 80.88 446.34 81.25 446.78 81.77L445.61 82.79L445.58 82.76Z" fill="#076293"/>
<path d="M458.01 81.96H454.03V92.67H452.6V81.96H448.62V80.63H458V81.96H458.01Z" fill="#076293"/>
</svg>
