<svg width="496" height="129" viewBox="0 0 496 129" fill="none" xmlns="http://www.w3.org/2000/svg">
<path d="M98.1499 90.99L82.0299 76.66C76.9499 72.15 76.4999 64.38 81.0099 59.3L81.3799 58.88L101.94 77.15L128.8 46.46C133.43 41.17 141.48 40.63 146.77 45.26L146.86 45.34L107.43 90.41C105.04 93.14 100.88 93.41 98.1599 90.99H98.1499Z" fill="#71D2C1"/>
<path d="M85.0101 37.78L101.13 52.11C106.21 56.62 106.66 64.39 102.15 69.47L101.78 69.89L81.2201 51.62L54.3601 82.31C49.7301 87.6 41.68 88.14 36.39 83.51L36.3 83.43L75.7301 38.36C78.1201 35.63 82.28 35.36 85 37.78H85.0101Z" fill="#076293"/>
<path d="M292.87 51.985C291.1 51.205 289.29 50.815 287.42 50.815C284.95 50.815 282.69 51.415 280.62 52.615C278.55 53.815 276.92 55.445 275.72 57.495C274.52 59.545 273.92 61.805 273.92 64.265C273.92 66.725 274.52 68.945 275.72 71.015C276.92 73.085 278.55 74.715 280.62 75.915C282.69 77.115 284.95 77.715 287.42 77.715C289.25 77.715 291.05 77.335 292.82 76.595C294.59 75.845 296.15 74.825 297.52 73.515L300.42 76.665C298.65 78.395 296.6 79.755 294.27 80.745C291.94 81.735 289.57 82.215 287.17 82.215C283.84 82.215 280.79 81.425 278.02 79.835C275.25 78.255 273.07 76.095 271.47 73.355C269.87 70.625 269.07 67.605 269.07 64.305C269.07 61.005 269.88 58.045 271.49 55.325C273.11 52.605 275.32 50.465 278.11 48.895C280.91 47.325 283.99 46.545 287.36 46.545C289.79 46.545 292.15 47.005 294.44 47.925C296.72 48.845 298.7 50.135 300.36 51.805L297.51 55.255C296.18 53.855 294.63 52.765 292.86 51.985H292.87Z" fill="#71D2C1"/>
<path d="M305.01 46.865H329.31V51.215H309.81V62.015H327.26V66.365H309.81V77.515H329.91V81.865H305.01V46.865Z" fill="#71D2C1"/>
<path d="M358.94 81.865L351.99 70.865C351.19 70.935 350.54 70.965 350.04 70.965H341.14V81.865H336.34V46.865H350.04C354.47 46.865 357.9 47.885 360.31 49.945C362.73 51.995 363.93 54.905 363.93 58.665C363.93 61.495 363.27 63.885 361.96 65.815C360.64 67.745 358.75 69.145 356.29 70.015L364.44 81.865H358.94ZM350.04 66.615C353.04 66.615 355.34 65.955 356.94 64.635C358.54 63.315 359.34 61.375 359.34 58.815C359.34 56.255 358.54 54.425 356.94 53.135C355.34 51.855 353.04 51.215 350.04 51.215H341.14V66.615H350.04Z" fill="#71D2C1"/>
<path d="M366.89 46.865H394.24V51.265H382.94V81.865H378.14V51.265H366.89V46.865Z" fill="#71D2C1"/>
<path d="M406.35 75.135C408.13 76.955 410.59 77.865 413.73 77.865C416.87 77.865 419.26 76.955 421.03 75.135C422.8 73.315 423.68 70.795 423.68 67.565V46.865H428.48V67.565C428.48 72.135 427.17 75.715 424.56 78.315C421.94 80.915 418.34 82.215 413.73 82.215C409.12 82.215 405.46 80.915 402.83 78.315C400.2 75.715 398.88 72.135 398.88 67.565V46.865H403.68V67.565C403.68 70.795 404.57 73.325 406.35 75.135Z" fill="#71D2C1"/>
<path d="M451.12 51.835C449.37 51.315 447.76 51.065 446.29 51.065C444.26 51.065 442.63 51.455 441.41 52.235C440.19 53.015 439.58 54.095 439.58 55.465C439.58 56.695 439.95 57.705 440.68 58.485C441.41 59.265 442.31 59.885 443.38 60.335C444.45 60.785 445.93 61.315 447.83 61.905C450.2 62.635 452.11 63.335 453.58 64.005C455.05 64.675 456.3 65.665 457.33 66.985C458.36 68.305 458.88 70.045 458.88 72.215C458.88 74.215 458.34 75.965 457.26 77.465C456.18 78.965 454.66 80.125 452.71 80.945C450.76 81.765 448.52 82.165 445.99 82.165C443.46 82.165 440.92 81.665 438.49 80.665C436.06 79.665 433.96 78.335 432.19 76.665L434.34 72.515C436.01 74.145 437.88 75.405 439.96 76.285C442.04 77.165 444.07 77.615 446.04 77.615C448.37 77.615 450.21 77.155 451.57 76.235C452.92 75.315 453.59 74.075 453.59 72.505C453.59 71.275 453.22 70.255 452.49 69.455C451.76 68.655 450.83 68.025 449.71 67.555C448.59 67.085 447.09 66.575 445.19 66.005C442.86 65.305 440.96 64.625 439.49 63.955C438.02 63.285 436.78 62.305 435.77 61.005C434.75 59.705 434.24 57.985 434.24 55.855C434.24 53.985 434.76 52.335 435.79 50.905C436.82 49.475 438.27 48.375 440.14 47.605C442.01 46.835 444.17 46.455 446.64 46.455C448.74 46.455 450.8 46.765 452.81 47.375C454.83 47.995 456.62 48.815 458.19 49.855L456.19 54.155C454.56 53.125 452.86 52.345 451.11 51.835H451.12Z" fill="#71D2C1"/>
<path d="M185.4 50.035C187.87 52.185 189.1 55.215 189.1 59.115C189.1 63.245 187.87 66.455 185.4 68.735C182.93 71.015 179.47 72.155 175 72.155H168.75V81.855H159.6V46.805H175C179.47 46.805 182.93 47.875 185.4 50.025V50.035ZM178.87 63.465C179.89 62.535 180.4 61.185 180.4 59.415C180.4 57.645 179.89 56.405 178.87 55.495C177.85 54.575 176.41 54.115 174.54 54.115H168.74V64.865H174.54C176.41 64.865 177.85 64.395 178.87 63.465Z" fill="#076293"/>
<path d="M214.44 81.865L209.34 72.165H202.54V81.865H193.39V46.815H209.14C213.77 46.815 217.36 47.885 219.91 50.035C222.46 52.185 223.74 55.215 223.74 59.115C223.74 61.745 223.21 64.025 222.14 65.945C221.07 67.865 219.52 69.355 217.49 70.415L224.79 81.865H214.44ZM202.54 64.865H209.19C211.06 64.865 212.5 64.395 213.52 63.465C214.54 62.535 215.04 61.185 215.04 59.415C215.04 57.645 214.53 56.405 213.52 55.495C212.5 54.575 211.06 54.115 209.19 54.115H202.54V64.865Z" fill="#076293"/>
<path d="M255.75 48.615C258.63 50.185 260.9 52.335 262.55 55.065C264.2 57.795 265.02 60.865 265.02 64.265C265.02 67.665 264.19 70.795 262.55 73.565C260.9 76.335 258.63 78.515 255.75 80.115C252.87 81.715 249.64 82.515 246.07 82.515C242.5 82.515 239.28 81.725 236.4 80.135C233.52 78.555 231.25 76.365 229.6 73.585C227.95 70.805 227.13 67.695 227.13 64.255C227.13 60.815 227.95 57.785 229.6 55.055C231.25 52.325 233.52 50.175 236.4 48.605C239.28 47.035 242.51 46.255 246.07 46.255C249.63 46.255 252.86 47.035 255.75 48.605V48.615ZM241.35 55.365C239.87 56.265 238.69 57.505 237.82 59.095C236.95 60.675 236.52 62.415 236.52 64.325C236.52 66.235 236.96 68.015 237.85 69.595C238.73 71.175 239.91 72.425 241.38 73.345C242.85 74.265 244.45 74.725 246.18 74.725C247.91 74.725 249.51 74.265 250.95 73.345C252.4 72.425 253.54 71.175 254.38 69.595C255.21 68.015 255.63 66.255 255.63 64.325C255.63 62.395 255.21 60.685 254.38 59.095C253.55 57.515 252.4 56.265 250.95 55.365C249.5 54.465 247.91 54.015 246.18 54.015C244.45 54.015 242.84 54.465 241.35 55.365Z" fill="#076293"/>
</svg>
