<svg width="183" height="129" viewBox="0 0 183 129" fill="none" xmlns="http://www.w3.org/2000/svg">
<g clip-path="url(#clip0_10121_628)">
<path d="M111.335 2.36C114.215 3.93 116.485 6.08 118.135 8.81C119.785 11.54 120.605 14.61 120.605 18.01C120.605 21.41 119.775 24.54 118.135 27.31C116.485 30.08 114.215 32.26 111.335 33.86C108.455 35.46 105.225 36.26 101.655 36.26C98.085 36.26 94.865 35.47 91.985 33.88C89.105 32.3 86.835 30.11 85.185 27.33C83.535 24.55 82.715 21.44 82.715 18C82.715 14.56 83.535 11.53 85.185 8.8C86.835 6.07 89.105 3.92 91.985 2.35C94.865 0.78 98.095 0 101.655 0C105.215 0 108.445 0.78 111.335 2.35V2.36ZM96.935 9.11C95.455 10.01 94.275 11.25 93.405 12.84C92.535 14.42 92.105 16.16 92.105 18.07C92.105 19.98 92.545 21.76 93.435 23.34C94.315 24.92 95.495 26.17 96.965 27.09C98.435 28.01 100.035 28.47 101.765 28.47C103.495 28.47 105.095 28.01 106.535 27.09C107.985 26.17 109.125 24.92 109.965 23.34C110.795 21.76 111.215 20 111.215 18.07C111.215 16.14 110.795 14.43 109.965 12.84C109.135 11.26 107.985 10.01 106.535 9.11C105.085 8.21 103.495 7.76 101.765 7.76C100.035 7.76 98.425 8.21 96.935 9.11Z" fill="#D9D9D9"/>
<path d="M111.335 95.0898C114.215 96.6598 116.485 98.8098 118.135 101.54C119.785 104.27 120.605 107.34 120.605 110.74C120.605 114.14 119.775 117.27 118.135 120.04C116.485 122.81 114.215 124.99 111.335 126.59C108.455 128.19 105.225 128.99 101.655 128.99C98.085 128.99 94.865 128.2 91.985 126.61C89.105 125.03 86.835 122.84 85.185 120.06C83.535 117.28 82.715 114.17 82.715 110.73C82.715 107.29 83.535 104.26 85.185 101.53C86.835 98.7998 89.105 96.6498 91.985 95.0798C94.865 93.5098 98.095 92.7298 101.655 92.7298C105.215 92.7298 108.445 93.5098 111.335 95.0798V95.0898ZM96.935 101.84C95.455 102.74 94.275 103.98 93.405 105.57C92.535 107.15 92.105 108.89 92.105 110.8C92.105 112.71 92.545 114.49 93.435 116.07C94.315 117.65 95.495 118.9 96.965 119.82C98.435 120.74 100.035 121.2 101.765 121.2C103.495 121.2 105.095 120.74 106.535 119.82C107.985 118.9 109.125 117.65 109.965 116.07C110.795 114.49 111.215 112.73 111.215 110.8C111.215 108.87 110.795 107.16 109.965 105.57C109.135 103.99 107.985 102.74 106.535 101.84C105.085 100.94 103.495 100.49 101.765 100.49C100.035 100.49 98.425 100.94 96.935 101.84Z" fill="#D9D9D9"/>
<path d="M98.1099 91.0754L81.9899 76.7454C76.9099 72.2354 76.4599 64.4654 80.9699 59.3854L81.3399 58.9654L101.9 77.2354L128.76 46.5454C133.39 41.2554 141.44 40.7154 146.73 45.3454L146.82 45.4254L107.39 90.4954C105 93.2254 100.84 93.4954 98.1199 91.0754H98.1099Z" fill="#71D2C1"/>
<path d="M84.97 37.8654L101.09 52.1954C106.17 56.7054 106.62 64.4754 102.11 69.5554L101.74 69.9754L81.18 51.7054L54.32 82.3954C49.69 87.6854 41.64 88.2254 36.35 83.5954L36.26 83.5154L75.69 38.4454C78.08 35.7154 82.24 35.4454 84.96 37.8654H84.97Z" fill="#076293"/>
<path d="M180.72 64.88C179.15 67.76 177 70.03 174.27 71.68C171.54 73.33 168.47 74.15 165.07 74.15C161.67 74.15 158.54 73.32 155.77 71.68C153 70.03 150.82 67.76 149.22 64.88C147.62 62 146.82 58.77 146.82 55.2C146.82 51.63 147.61 48.41 149.2 45.53C150.78 42.65 152.97 40.38 155.75 38.73C158.53 37.08 161.64 36.26 165.08 36.26C168.52 36.26 171.55 37.08 174.28 38.73C177.01 40.38 179.16 42.65 180.73 45.53C182.3 48.41 183.08 51.64 183.08 55.2C183.08 58.76 182.3 61.99 180.73 64.88H180.72ZM173.97 50.48C173.07 49 171.83 47.82 170.24 46.95C168.66 46.08 166.92 45.65 165.01 45.65C163.1 45.65 161.32 46.09 159.74 46.98C158.16 47.86 156.91 49.04 155.99 50.51C155.07 51.98 154.61 53.58 154.61 55.31C154.61 57.04 155.07 58.64 155.99 60.08C156.91 61.53 158.16 62.67 159.74 63.51C161.32 64.34 163.08 64.76 165.01 64.76C166.94 64.76 168.65 64.34 170.24 63.51C171.82 62.68 173.07 61.53 173.97 60.08C174.87 58.63 175.32 57.04 175.32 55.31C175.32 53.58 174.87 51.97 173.97 50.48Z" fill="#D9D9D9"/>
<path d="M2.36 51.8025C3.93 48.9225 6.08 46.6525 8.81 45.0025C11.54 43.3525 14.61 42.5325 18.01 42.5325C21.41 42.5325 24.54 43.3625 27.31 45.0025C30.08 46.6525 32.26 48.9225 33.86 51.8025C35.46 54.6825 36.26 57.9125 36.26 61.4825C36.26 65.0525 35.47 68.2725 33.88 71.1525C32.3 74.0325 30.11 76.3025 27.33 77.9525C24.55 79.6025 21.44 80.4225 18 80.4225C14.56 80.4225 11.53 79.6025 8.8 77.9525C6.07 76.3025 3.92 74.0325 2.35 71.1525C0.78 68.2725 0 65.0425 0 61.4825C0 57.9225 0.78 54.6925 2.35 51.8025H2.36ZM9.11 66.2025C10.01 67.6825 11.25 68.8625 12.84 69.7325C14.42 70.6025 16.16 71.0325 18.07 71.0325C19.98 71.0325 21.76 70.5925 23.34 69.7025C24.92 68.8225 26.17 67.6425 27.09 66.1725C28.01 64.7025 28.47 63.1025 28.47 61.3725C28.47 59.6425 28.01 58.0425 27.09 56.6025C26.17 55.1525 24.92 54.0125 23.34 53.1725C21.76 52.3425 20 51.9225 18.07 51.9225C16.14 51.9225 14.43 52.3425 12.84 53.1725C11.26 54.0025 10.01 55.1525 9.11 56.6025C8.21 58.0525 7.76 59.6425 7.76 61.3725C7.76 63.1025 8.21 64.7125 9.11 66.2025Z" fill="#D9D9D9"/>
</g>
<defs>
<clipPath id="clip0_10121_628">
<rect width="183" height="129" fill="white"/>
</clipPath>
</defs>
</svg>
