<svg width="372" height="193" viewBox="0 0 372 193" fill="none" xmlns="http://www.w3.org/2000/svg">
<g clip-path="url(#clip0_10120_361)">
<path d="M205.89 2.36C208.77 3.93 211.04 6.08 212.69 8.81C214.34 11.54 215.16 14.61 215.16 18.01C215.16 21.41 214.33 24.54 212.69 27.31C211.04 30.08 208.77 32.26 205.89 33.86C203.01 35.46 199.78 36.26 196.21 36.26C192.64 36.26 189.42 35.47 186.54 33.88C183.66 32.3 181.39 30.11 179.74 27.33C178.09 24.55 177.27 21.44 177.27 18C177.27 14.56 178.09 11.53 179.74 8.8C181.39 6.07 183.66 3.92 186.54 2.35C189.42 0.78 192.65 0 196.21 0C199.77 0 203 0.78 205.89 2.35V2.36ZM191.49 9.11C190.01 10.01 188.83 11.25 187.96 12.84C187.09 14.42 186.66 16.16 186.66 18.07C186.66 19.98 187.1 21.76 187.99 23.34C188.87 24.92 190.05 26.17 191.52 27.09C192.99 28.01 194.59 28.47 196.32 28.47C198.05 28.47 199.65 28.01 201.09 27.09C202.54 26.17 203.68 24.92 204.52 23.34C205.35 21.76 205.77 20 205.77 18.07C205.77 16.14 205.35 14.43 204.52 12.84C203.69 11.26 202.54 10.01 201.09 9.11C199.64 8.21 198.05 7.76 196.32 7.76C194.59 7.76 192.98 8.21 191.49 9.11Z" fill="#D9D9D9"/>
<path d="M205.89 159.07C208.77 160.64 211.04 162.79 212.69 165.52C214.34 168.25 215.16 171.32 215.16 174.72C215.16 178.12 214.33 181.25 212.69 184.02C211.04 186.79 208.77 188.97 205.89 190.57C203.01 192.17 199.78 192.97 196.21 192.97C192.64 192.97 189.42 192.18 186.54 190.59C183.66 189.01 181.39 186.82 179.74 184.04C178.09 181.26 177.27 178.15 177.27 174.71C177.27 171.27 178.09 168.24 179.74 165.51C181.39 162.78 183.66 160.63 186.54 159.06C189.42 157.49 192.65 156.71 196.21 156.71C199.77 156.71 203 157.49 205.89 159.06V159.07ZM191.49 165.82C190.01 166.72 188.83 167.96 187.96 169.55C187.09 171.13 186.66 172.87 186.66 174.78C186.66 176.69 187.1 178.47 187.99 180.05C188.87 181.63 190.05 182.88 191.52 183.8C192.99 184.72 194.59 185.18 196.32 185.18C198.05 185.18 199.65 184.72 201.09 183.8C202.54 182.88 203.68 181.63 204.52 180.05C205.35 178.47 205.77 176.71 205.77 174.78C205.77 172.85 205.35 171.14 204.52 169.55C203.69 167.97 202.54 166.72 201.09 165.82C199.64 164.92 198.05 164.47 196.32 164.47C194.59 164.47 192.98 164.92 191.49 165.82Z" fill="#D9D9D9"/>
<path d="M192.665 91.0754L176.545 76.7454C171.465 72.2354 171.015 64.4654 175.525 59.3854L175.895 58.9654L196.455 77.2354L223.315 46.5454C227.945 41.2554 235.995 40.7154 241.285 45.3454L241.375 45.4254L201.945 90.4954C199.555 93.2254 195.395 93.4954 192.675 91.0754H192.665Z" fill="#71D2C1"/>
<path d="M179.525 37.8654L195.645 52.1954C200.725 56.7054 201.175 64.4754 196.665 69.5554L196.295 69.9754L175.735 51.7054L148.875 82.3954C144.245 87.6854 136.195 88.2254 130.905 83.5954L130.815 83.5154L170.245 38.4454C172.635 35.7154 176.795 35.4454 179.515 37.8654H179.525Z" fill="#076293"/>
<path d="M169.93 105.36C168.16 104.58 166.35 104.19 164.48 104.19C162.01 104.19 159.75 104.79 157.68 105.99C155.61 107.19 153.98 108.82 152.78 110.87C151.58 112.92 150.98 115.18 150.98 117.64C150.98 120.1 151.58 122.32 152.78 124.39C153.98 126.46 155.61 128.09 157.68 129.29C159.75 130.49 162.01 131.09 164.48 131.09C166.31 131.09 168.11 130.71 169.88 129.97C171.65 129.22 173.21 128.2 174.58 126.89L177.48 130.04C175.71 131.77 173.66 133.13 171.33 134.12C169 135.11 166.63 135.59 164.23 135.59C160.9 135.59 157.85 134.8 155.08 133.21C152.31 131.63 150.13 129.47 148.53 126.73C146.93 124 146.13 120.98 146.13 117.68C146.13 114.38 146.94 111.42 148.55 108.7C150.17 105.98 152.38 103.84 155.17 102.27C157.97 100.7 161.05 99.92 164.42 99.92C166.85 99.92 169.21 100.38 171.5 101.3C173.78 102.22 175.76 103.51 177.42 105.18L174.57 108.63C173.24 107.23 171.69 106.14 169.92 105.36H169.93Z" fill="#71D2C1"/>
<path d="M182.07 100.24H206.37V104.59H186.87V115.39H204.32V119.74H186.87V130.89H206.97V135.24H182.07V100.24Z" fill="#71D2C1"/>
<path d="M236 135.24L229.05 124.24C228.25 124.31 227.6 124.34 227.1 124.34H218.2V135.24H213.4V100.24H227.1C231.53 100.24 234.96 101.26 237.37 103.32C239.79 105.37 240.99 108.28 240.99 112.04C240.99 114.87 240.33 117.26 239.02 119.19C237.7 121.12 235.81 122.52 233.35 123.39L241.5 135.24H236ZM227.1 119.99C230.1 119.99 232.4 119.33 234 118.01C235.6 116.69 236.4 114.75 236.4 112.19C236.4 109.63 235.6 107.8 234 106.51C232.4 105.23 230.1 104.59 227.1 104.59H218.2V119.99H227.1Z" fill="#71D2C1"/>
<path d="M243.95 100.24H271.3V104.64H260V135.24H255.2V104.64H243.95V100.24Z" fill="#71D2C1"/>
<path d="M283.41 128.51C285.19 130.33 287.65 131.24 290.79 131.24C293.93 131.24 296.32 130.33 298.09 128.51C299.86 126.69 300.74 124.17 300.74 120.94V100.24H305.54V120.94C305.54 125.51 304.23 129.09 301.62 131.69C299 134.29 295.4 135.59 290.79 135.59C286.18 135.59 282.52 134.29 279.89 131.69C277.26 129.09 275.94 125.51 275.94 120.94V100.24H280.74V120.94C280.74 124.17 281.63 126.7 283.41 128.51Z" fill="#71D2C1"/>
<path d="M328.18 105.21C326.43 104.69 324.82 104.44 323.35 104.44C321.32 104.44 319.69 104.83 318.47 105.61C317.25 106.39 316.64 107.47 316.64 108.84C316.64 110.07 317.01 111.08 317.74 111.86C318.47 112.64 319.37 113.26 320.44 113.71C321.51 114.16 322.99 114.69 324.89 115.28C327.26 116.01 329.17 116.71 330.64 117.38C332.11 118.05 333.36 119.04 334.39 120.36C335.42 121.68 335.94 123.42 335.94 125.59C335.94 127.59 335.4 129.34 334.32 130.84C333.24 132.34 331.72 133.5 329.77 134.32C327.82 135.14 325.58 135.54 323.05 135.54C320.52 135.54 317.98 135.04 315.55 134.04C313.12 133.04 311.02 131.71 309.25 130.04L311.4 125.89C313.07 127.52 314.94 128.78 317.02 129.66C319.1 130.54 321.13 130.99 323.1 130.99C325.43 130.99 327.27 130.53 328.63 129.61C329.98 128.69 330.65 127.45 330.65 125.88C330.65 124.65 330.28 123.63 329.55 122.83C328.82 122.03 327.89 121.4 326.77 120.93C325.65 120.46 324.15 119.95 322.25 119.38C319.92 118.68 318.02 118 316.55 117.33C315.08 116.66 313.84 115.68 312.83 114.38C311.81 113.08 311.3 111.36 311.3 109.23C311.3 107.36 311.82 105.71 312.85 104.28C313.88 102.85 315.33 101.75 317.2 100.98C319.07 100.21 321.23 99.83 323.7 99.83C325.8 99.83 327.86 100.14 329.87 100.75C331.89 101.37 333.68 102.19 335.25 103.23L333.25 107.53C331.62 106.5 329.92 105.72 328.17 105.21H328.18Z" fill="#71D2C1"/>
<path d="M62.46 103.41C64.93 105.56 66.16 108.59 66.16 112.49C66.16 116.62 64.93 119.83 62.46 122.11C59.99 124.39 56.53 125.53 52.06 125.53H45.81V135.23H36.66V100.18H52.06C56.53 100.18 59.99 101.25 62.46 103.4V103.41ZM55.93 116.84C56.95 115.91 57.46 114.56 57.46 112.79C57.46 111.02 56.95 109.78 55.93 108.87C54.91 107.95 53.47 107.49 51.6 107.49H45.8V118.24H51.6C53.47 118.24 54.91 117.77 55.93 116.84Z" fill="#076293"/>
<path d="M91.5001 135.24L86.4001 125.54H79.6001V135.24H70.4501V100.19H86.2001C90.8301 100.19 94.4201 101.26 96.9701 103.41C99.5201 105.56 100.8 108.59 100.8 112.49C100.8 115.12 100.27 117.4 99.2001 119.32C98.1301 121.24 96.5801 122.73 94.5501 123.79L101.85 135.24H91.5001ZM79.6001 118.24H86.2501C88.1201 118.24 89.5601 117.77 90.5801 116.84C91.6001 115.91 92.1001 114.56 92.1001 112.79C92.1001 111.02 91.5901 109.78 90.5801 108.87C89.5601 107.95 88.1201 107.49 86.2501 107.49H79.6001V118.24Z" fill="#076293"/>
<path d="M132.81 101.99C135.69 103.56 137.96 105.71 139.61 108.44C141.26 111.17 142.08 114.24 142.08 117.64C142.08 121.04 141.25 124.17 139.61 126.94C137.96 129.71 135.69 131.89 132.81 133.49C129.93 135.09 126.7 135.89 123.13 135.89C119.56 135.89 116.34 135.1 113.46 133.51C110.58 131.93 108.31 129.74 106.66 126.96C105.01 124.18 104.19 121.07 104.19 117.63C104.19 114.19 105.01 111.16 106.66 108.43C108.31 105.7 110.58 103.55 113.46 101.98C116.34 100.41 119.57 99.63 123.13 99.63C126.69 99.63 129.92 100.41 132.81 101.98V101.99ZM118.41 108.74C116.93 109.64 115.75 110.88 114.88 112.47C114.01 114.05 113.58 115.79 113.58 117.7C113.58 119.61 114.02 121.39 114.91 122.97C115.79 124.55 116.97 125.8 118.44 126.72C119.91 127.64 121.51 128.1 123.24 128.1C124.97 128.1 126.57 127.64 128.01 126.72C129.46 125.8 130.6 124.55 131.44 122.97C132.27 121.39 132.69 119.63 132.69 117.7C132.69 115.77 132.27 114.06 131.44 112.47C130.61 110.89 129.46 109.64 128.01 108.74C126.56 107.84 124.97 107.39 123.24 107.39C121.51 107.39 119.9 107.84 118.41 108.74Z" fill="#076293"/>
<path d="M44.85 147.68C44.51 147.22 44.09 146.88 43.59 146.65C43.09 146.42 42.57 146.31 42.02 146.31C41.39 146.31 40.81 146.44 40.28 146.69C39.75 146.95 39.3 147.29 38.91 147.72C38.53 148.15 38.23 148.65 38.01 149.22C37.8 149.79 37.69 150.39 37.69 151C37.69 151.66 37.8 152.28 38.01 152.85C38.22 153.42 38.52 153.92 38.9 154.34C39.28 154.76 39.73 155.09 40.26 155.34C40.79 155.59 41.37 155.71 42.01 155.71C42.7 155.71 43.32 155.57 43.87 155.3C44.41 155.03 44.89 154.64 45.29 154.12L46.3 154.97C45.79 155.65 45.17 156.15 44.45 156.47C43.73 156.79 42.92 156.95 42.01 156.95C41.2 156.95 40.44 156.8 39.74 156.5C39.04 156.2 38.42 155.79 37.91 155.26C37.39 154.73 36.99 154.11 36.69 153.38C36.4 152.66 36.25 151.86 36.25 151C36.25 150.14 36.39 149.39 36.67 148.66C36.95 147.93 37.35 147.31 37.86 146.77C38.37 146.23 38.98 145.81 39.68 145.51C40.38 145.2 41.16 145.05 42 145.05C42.77 145.05 43.51 145.19 44.22 145.47C44.93 145.75 45.52 146.2 46 146.83L44.83 147.68H44.85Z" fill="#076293"/>
<path d="M48.76 145.35H55.88V146.6H50.1V150.15H55.49V151.4H50.1V155.43H56.16V156.68H48.75V145.35H48.76Z" fill="#076293"/>
<path d="M58.8201 145.35H61.7201C62.2601 145.35 62.8101 145.38 63.3401 145.45C63.8801 145.51 64.3601 145.65 64.7901 145.87C65.2201 146.08 65.5601 146.4 65.8301 146.81C66.1001 147.22 66.2301 147.78 66.2301 148.48C66.2301 149.31 65.9801 149.98 65.4801 150.5C64.9801 151.01 64.2801 151.34 63.4001 151.48L66.6201 156.7H64.9701L61.9001 151.61H60.1701V156.7H58.8301V145.37L58.8201 145.35ZM60.1601 150.34H61.3601C61.7301 150.34 62.1201 150.33 62.5201 150.31C62.9201 150.29 63.2901 150.22 63.6201 150.1C63.9501 149.98 64.2301 149.8 64.4501 149.55C64.6701 149.3 64.7801 148.94 64.7801 148.47C64.7801 148.06 64.7001 147.74 64.5401 147.49C64.3801 147.24 64.1701 147.06 63.9101 146.92C63.6501 146.79 63.3601 146.7 63.0301 146.66C62.7001 146.62 62.3801 146.6 62.0501 146.6H60.1601V150.34Z" fill="#076293"/>
<path d="M76.48 146.59H72.74V156.67H71.4V146.59H67.66V145.34H76.49V146.59H76.48Z" fill="#076293"/>
<path d="M78.64 145.35H79.98V156.68H78.64V145.35Z" fill="#076293"/>
<path d="M83.3801 145.35H90.4001V146.6H84.7201V150.34H90.0001V151.59H84.7201V156.68H83.3801V145.35Z" fill="#076293"/>
<path d="M92.8501 145.35H94.1901V156.68H92.8501V145.35Z" fill="#076293"/>
<path d="M105.52 147.68C105.18 147.22 104.76 146.88 104.26 146.65C103.76 146.42 103.24 146.31 102.69 146.31C102.06 146.31 101.48 146.44 100.95 146.69C100.42 146.95 99.97 147.29 99.58 147.72C99.2 148.15 98.9 148.65 98.68 149.22C98.47 149.79 98.36 150.39 98.36 151C98.36 151.66 98.47 152.28 98.68 152.85C98.89 153.42 99.19 153.92 99.57 154.34C99.95 154.76 100.4 155.09 100.93 155.34C101.46 155.59 102.04 155.71 102.68 155.71C103.37 155.71 103.99 155.57 104.54 155.3C105.08 155.03 105.56 154.64 105.96 154.12L106.97 154.97C106.46 155.65 105.84 156.15 105.12 156.47C104.4 156.79 103.59 156.95 102.68 156.95C101.87 156.95 101.11 156.8 100.41 156.5C99.71 156.2 99.09 155.79 98.58 155.26C98.06 154.73 97.66 154.11 97.36 153.38C97.07 152.66 96.92 151.86 96.92 151C96.92 150.14 97.06 149.39 97.34 148.66C97.62 147.93 98.02 147.31 98.53 146.77C99.04 146.23 99.65 145.81 100.35 145.51C101.05 145.2 101.83 145.05 102.67 145.05C103.44 145.05 104.18 145.19 104.89 145.47C105.6 145.75 106.19 146.2 106.67 146.83L105.5 147.68H105.52Z" fill="#076293"/>
<path d="M113.11 145.35H114.37L119.19 156.68H117.62L116.47 153.9H110.81L109.64 156.68H108.12L113.11 145.35ZM113.72 147.08H113.69L111.34 152.65H115.96L113.72 147.08Z" fill="#076293"/>
<path d="M127.39 146.59H123.65V156.67H122.31V146.59H118.57V145.34H127.4V146.59H127.39Z" fill="#076293"/>
<path d="M129.55 145.35H130.89V156.68H129.55V145.35Z" fill="#076293"/>
<path d="M139.55 156.96C138.69 156.96 137.89 156.81 137.17 156.51C136.45 156.21 135.83 155.8 135.3 155.27C134.77 154.74 134.36 154.11 134.07 153.38C133.78 152.65 133.63 151.86 133.63 151C133.63 150.14 133.78 149.35 134.07 148.62C134.36 147.89 134.77 147.26 135.3 146.73C135.83 146.2 136.45 145.79 137.17 145.49C137.89 145.19 138.68 145.04 139.55 145.04C140.42 145.04 141.21 145.19 141.93 145.49C142.65 145.79 143.27 146.2 143.8 146.73C144.33 147.26 144.74 147.89 145.03 148.62C145.32 149.35 145.47 150.14 145.47 151C145.47 151.86 145.32 152.65 145.03 153.38C144.74 154.11 144.33 154.74 143.8 155.27C143.27 155.8 142.65 156.21 141.93 156.51C141.21 156.81 140.42 156.96 139.55 156.96ZM139.55 155.71C140.21 155.71 140.82 155.59 141.37 155.34C141.92 155.09 142.39 154.76 142.79 154.33C143.18 153.9 143.49 153.4 143.71 152.83C143.93 152.26 144.04 151.65 144.04 151C144.04 150.35 143.93 149.74 143.71 149.17C143.49 148.6 143.18 148.1 142.79 147.67C142.39 147.24 141.92 146.91 141.37 146.66C140.82 146.41 140.21 146.29 139.55 146.29C138.89 146.29 138.28 146.41 137.73 146.66C137.18 146.91 136.71 147.24 136.31 147.67C135.91 148.1 135.61 148.6 135.39 149.17C135.17 149.74 135.06 150.35 135.06 151C135.06 151.65 135.17 152.26 135.39 152.83C135.61 153.4 135.92 153.9 136.31 154.33C136.7 154.76 137.18 155.09 137.73 155.34C138.28 155.59 138.88 155.71 139.55 155.71Z" fill="#076293"/>
<path d="M148.21 145.35H149.91L156.47 154.76H156.5V145.35H157.84V156.68H156.14L149.58 147.27H149.55V156.68H148.21V145.35Z" fill="#076293"/>
<path d="M174.42 145.96H170.44V156.67H169.01V145.96H165.03V144.63H174.41V145.96H174.42Z" fill="#076293"/>
<path d="M176.72 144.64H178.15V149.74H184.58V144.64H186.01V156.68H184.58V151.07H178.15V156.68H176.72V144.64Z" fill="#076293"/>
<path d="M193.51 144.64H194.85L199.97 156.68H198.3L197.08 153.72H191.06L189.82 156.68H188.2L193.5 144.64H193.51ZM194.16 146.48H194.13L191.63 152.4H196.54L194.16 146.48Z" fill="#076293"/>
<path d="M208.69 145.96H204.71V156.67H203.28V145.96H199.3V144.63H208.68V145.96H208.69Z" fill="#076293"/>
<path d="M216.33 144.64H220C220.5 144.64 220.99 144.69 221.46 144.79C221.94 144.89 222.36 145.06 222.74 145.29C223.11 145.52 223.42 145.83 223.65 146.2C223.88 146.57 224 147.04 224 147.59C224 148.29 223.81 148.87 223.43 149.33C223.05 149.79 222.54 150.12 221.89 150.31V150.34C222.28 150.37 222.64 150.47 222.97 150.64C223.3 150.8 223.59 151.02 223.84 151.28C224.08 151.54 224.27 151.84 224.41 152.19C224.55 152.54 224.61 152.91 224.61 153.3C224.61 153.97 224.47 154.52 224.19 154.95C223.91 155.38 223.55 155.72 223.1 155.98C222.65 156.23 222.15 156.41 221.59 156.52C221.03 156.62 220.47 156.67 219.92 156.67H216.33V144.63V144.64ZM217.76 149.74H219.73C220.07 149.74 220.4 149.72 220.72 149.67C221.04 149.62 221.33 149.53 221.6 149.39C221.87 149.25 222.07 149.05 222.23 148.79C222.39 148.54 222.47 148.2 222.47 147.78C222.47 147.41 222.4 147.1 222.25 146.87C222.1 146.64 221.91 146.45 221.66 146.32C221.42 146.18 221.14 146.09 220.83 146.04C220.52 145.99 220.2 145.96 219.89 145.96H217.77V149.73L217.76 149.74ZM217.76 155.35H220.17C220.52 155.35 220.87 155.31 221.22 155.24C221.57 155.17 221.88 155.05 222.15 154.88C222.43 154.72 222.65 154.5 222.82 154.23C222.99 153.96 223.07 153.64 223.07 153.25C223.07 152.83 222.99 152.48 222.82 152.2C222.66 151.92 222.44 151.69 222.17 151.52C221.9 151.35 221.6 151.23 221.25 151.16C220.9 151.09 220.55 151.06 220.19 151.06H217.74V155.34L217.76 155.35Z" fill="#076293"/>
<path d="M236.68 152.08C236.68 152.74 236.6 153.36 236.43 153.95C236.27 154.54 236.01 155.06 235.65 155.51C235.29 155.96 234.83 156.31 234.25 156.58C233.67 156.85 232.97 156.98 232.14 156.98C231.31 156.98 230.61 156.85 230.03 156.58C229.45 156.31 228.98 155.96 228.63 155.51C228.27 155.06 228.01 154.54 227.85 153.95C227.69 153.36 227.6 152.74 227.6 152.08V144.63H229.03V151.87C229.03 152.36 229.08 152.83 229.18 153.28C229.28 153.73 229.45 154.14 229.69 154.49C229.93 154.84 230.24 155.12 230.64 155.33C231.04 155.54 231.53 155.65 232.14 155.65C232.75 155.65 233.24 155.54 233.64 155.33C234.04 155.12 234.35 154.84 234.59 154.49C234.83 154.14 235 153.74 235.1 153.28C235.2 152.83 235.25 152.36 235.25 151.87V144.63H236.68V152.08Z" fill="#076293"/>
<path d="M240.23 144.64H241.66V156.68H240.23V144.64Z" fill="#076293"/>
<path d="M245.26 144.64H246.69V155.35H252.2V156.68H245.26V144.64Z" fill="#076293"/>
<path d="M254.15 144.64H258.77C259.17 144.64 259.59 144.69 260.03 144.78C260.47 144.87 260.91 145.02 261.35 145.21C261.79 145.4 262.21 145.67 262.61 145.98C263.01 146.3 263.37 146.68 263.67 147.13C263.98 147.58 264.22 148.09 264.4 148.68C264.58 149.26 264.67 149.92 264.67 150.66C264.67 151.4 264.58 152.06 264.4 152.64C264.22 153.22 263.97 153.74 263.67 154.19C263.36 154.64 263.01 155.02 262.61 155.34C262.21 155.66 261.79 155.92 261.35 156.11C260.91 156.3 260.47 156.45 260.03 156.54C259.59 156.63 259.17 156.68 258.77 156.68H254.15V144.64ZM255.58 155.35H258.3C258.99 155.35 259.63 155.26 260.22 155.08C260.81 154.9 261.32 154.62 261.75 154.24C262.18 153.86 262.52 153.38 262.77 152.79C263.02 152.2 263.14 151.49 263.14 150.67C263.14 149.85 263.02 149.13 262.77 148.55C262.52 147.96 262.18 147.48 261.75 147.1C261.32 146.72 260.81 146.44 260.22 146.26C259.63 146.08 258.99 145.99 258.3 145.99H255.58V155.37V155.35Z" fill="#076293"/>
<path d="M273.29 146.76C273.05 146.38 272.73 146.09 272.34 145.92C271.94 145.75 271.53 145.66 271.1 145.66C270.78 145.66 270.47 145.7 270.17 145.78C269.86 145.86 269.59 145.98 269.35 146.14C269.11 146.3 268.91 146.51 268.76 146.77C268.61 147.03 268.54 147.34 268.54 147.69C268.54 147.96 268.58 148.2 268.67 148.41C268.76 148.62 268.89 148.81 269.09 148.98C269.28 149.15 269.54 149.31 269.87 149.46C270.2 149.61 270.6 149.75 271.08 149.9C271.54 150.05 272 150.21 272.43 150.38C272.87 150.55 273.25 150.76 273.59 151.03C273.93 151.3 274.19 151.62 274.39 152.01C274.59 152.4 274.69 152.89 274.69 153.48C274.69 154.07 274.57 154.6 274.33 155.04C274.09 155.48 273.78 155.85 273.39 156.14C273 156.43 272.55 156.64 272.04 156.79C271.53 156.93 271 157 270.46 157C270.11 157 269.76 156.97 269.41 156.91C269.06 156.85 268.72 156.75 268.4 156.62C268.08 156.49 267.77 156.32 267.49 156.11C267.21 155.9 266.96 155.64 266.76 155.34L267.98 154.34C268.24 154.78 268.6 155.12 269.07 155.34C269.53 155.57 270.03 155.68 270.55 155.68C270.86 155.68 271.17 155.63 271.48 155.54C271.79 155.45 272.07 155.32 272.32 155.14C272.57 154.96 272.77 154.75 272.93 154.49C273.09 154.23 273.17 153.93 273.17 153.59C273.17 153.22 273.11 152.91 272.98 152.68C272.86 152.45 272.66 152.25 272.4 152.08C272.14 151.91 271.81 151.76 271.41 151.62C271.01 151.48 270.55 151.33 270.02 151.14C269.59 151 269.19 150.85 268.83 150.67C268.47 150.49 268.15 150.28 267.89 150.02C267.63 149.76 267.41 149.46 267.26 149.1C267.11 148.74 267.03 148.32 267.03 147.82C267.03 147.24 267.14 146.74 267.37 146.31C267.6 145.88 267.9 145.52 268.29 145.23C268.68 144.94 269.11 144.72 269.6 144.58C270.09 144.43 270.6 144.36 271.13 144.36C271.81 144.36 272.43 144.46 272.99 144.67C273.55 144.88 274.05 145.25 274.49 145.77L273.32 146.79L273.29 146.76Z" fill="#076293"/>
<path d="M291.06 145.96H287.08V156.67H285.65V145.96H281.67V144.63H291.05V145.96H291.06Z" fill="#076293"/>
<path d="M293.35 144.64H296.43C297.01 144.64 297.58 144.67 298.16 144.74C298.73 144.81 299.24 144.95 299.7 145.18C300.16 145.41 300.52 145.74 300.81 146.18C301.09 146.62 301.23 147.21 301.23 147.96C301.23 148.84 300.96 149.56 300.43 150.1C299.9 150.64 299.16 150.99 298.22 151.14L301.64 156.68H299.89L296.63 151.27H294.79V156.68H293.36V144.64H293.35ZM294.78 149.94H296.06C296.46 149.94 296.87 149.93 297.29 149.91C297.71 149.89 298.11 149.81 298.46 149.69C298.82 149.57 299.11 149.37 299.34 149.1C299.57 148.83 299.69 148.45 299.69 147.95C299.69 147.52 299.61 147.17 299.44 146.91C299.27 146.65 299.05 146.45 298.77 146.31C298.49 146.17 298.18 146.07 297.84 146.03C297.49 145.98 297.15 145.96 296.79 145.96H294.78V149.94Z" fill="#076293"/>
<path d="M313.38 152.08C313.38 152.74 313.3 153.36 313.13 153.95C312.97 154.54 312.71 155.06 312.35 155.51C311.99 155.96 311.53 156.31 310.95 156.58C310.37 156.85 309.67 156.98 308.84 156.98C308.01 156.98 307.31 156.85 306.73 156.58C306.15 156.31 305.68 155.96 305.33 155.51C304.97 155.06 304.71 154.54 304.55 153.95C304.39 153.36 304.3 152.74 304.3 152.08V144.63H305.73V151.87C305.73 152.36 305.78 152.83 305.88 153.28C305.98 153.73 306.15 154.14 306.39 154.49C306.63 154.84 306.94 155.12 307.34 155.33C307.74 155.54 308.23 155.65 308.84 155.65C309.45 155.65 309.94 155.54 310.34 155.33C310.74 155.12 311.05 154.84 311.29 154.49C311.53 154.14 311.7 153.74 311.8 153.28C311.9 152.83 311.95 152.36 311.95 151.87V144.63H313.38V152.08Z" fill="#076293"/>
<path d="M322.64 146.76C322.4 146.38 322.08 146.09 321.69 145.92C321.29 145.75 320.88 145.66 320.45 145.66C320.13 145.66 319.82 145.7 319.52 145.78C319.21 145.86 318.94 145.98 318.7 146.14C318.46 146.3 318.26 146.51 318.11 146.77C317.96 147.03 317.89 147.34 317.89 147.69C317.89 147.96 317.93 148.2 318.02 148.41C318.11 148.62 318.24 148.81 318.44 148.98C318.63 149.15 318.89 149.31 319.22 149.46C319.55 149.61 319.95 149.75 320.43 149.9C320.89 150.05 321.35 150.21 321.78 150.38C322.22 150.55 322.6 150.76 322.94 151.03C323.28 151.3 323.54 151.62 323.74 152.01C323.94 152.4 324.04 152.89 324.04 153.48C324.04 154.07 323.92 154.6 323.68 155.04C323.44 155.48 323.13 155.85 322.74 156.14C322.35 156.43 321.9 156.64 321.39 156.79C320.88 156.93 320.35 157 319.81 157C319.46 157 319.11 156.97 318.76 156.91C318.41 156.85 318.07 156.75 317.75 156.62C317.43 156.49 317.12 156.32 316.84 156.11C316.56 155.9 316.31 155.64 316.11 155.34L317.33 154.34C317.59 154.78 317.95 155.12 318.42 155.34C318.88 155.57 319.38 155.68 319.9 155.68C320.21 155.68 320.52 155.63 320.83 155.54C321.14 155.45 321.42 155.32 321.67 155.14C321.92 154.96 322.12 154.75 322.28 154.49C322.44 154.23 322.52 153.93 322.52 153.59C322.52 153.22 322.46 152.91 322.33 152.68C322.21 152.45 322.01 152.25 321.75 152.08C321.49 151.91 321.16 151.76 320.76 151.62C320.36 151.48 319.9 151.33 319.37 151.14C318.94 151 318.54 150.85 318.18 150.67C317.82 150.49 317.5 150.28 317.24 150.02C316.98 149.76 316.76 149.46 316.61 149.1C316.46 148.74 316.38 148.32 316.38 147.82C316.38 147.24 316.49 146.74 316.72 146.31C316.95 145.88 317.25 145.52 317.64 145.23C318.03 144.94 318.46 144.72 318.95 144.58C319.44 144.43 319.95 144.36 320.48 144.36C321.16 144.36 321.78 144.46 322.34 144.67C322.9 144.88 323.4 145.25 323.84 145.77L322.67 146.79L322.64 146.76Z" fill="#076293"/>
<path d="M335.07 145.96H331.09V156.67H329.66V145.96H325.68V144.63H335.06V145.96H335.07Z" fill="#076293"/>
<path d="M369.87 127.6C368.3 130.48 366.15 132.75 363.42 134.4C360.69 136.05 357.62 136.87 354.22 136.87C350.82 136.87 347.69 136.04 344.92 134.4C342.15 132.75 339.97 130.48 338.37 127.6C336.77 124.72 335.97 121.49 335.97 117.92C335.97 114.35 336.76 111.13 338.35 108.25C339.93 105.37 342.12 103.1 344.9 101.45C347.68 99.8 350.79 98.98 354.23 98.98C357.67 98.98 360.7 99.8 363.43 101.45C366.16 103.1 368.31 105.37 369.88 108.25C371.45 111.13 372.23 114.36 372.23 117.92C372.23 121.48 371.45 124.71 369.88 127.6H369.87ZM363.12 113.2C362.22 111.72 360.98 110.54 359.39 109.67C357.81 108.8 356.07 108.37 354.16 108.37C352.25 108.37 350.47 108.81 348.89 109.7C347.31 110.58 346.06 111.76 345.14 113.23C344.22 114.7 343.76 116.3 343.76 118.03C343.76 119.76 344.22 121.36 345.14 122.8C346.06 124.25 347.31 125.39 348.89 126.23C350.47 127.06 352.23 127.48 354.16 127.48C356.09 127.48 357.8 127.06 359.39 126.23C360.97 125.4 362.22 124.25 363.12 122.8C364.02 121.35 364.47 119.76 364.47 118.03C364.47 116.3 364.02 114.69 363.12 113.2Z" fill="#D9D9D9"/>
<path d="M2.34999 118.81C3.91999 115.93 6.06999 113.66 8.79999 112.01C11.53 110.36 14.6 109.54 18 109.54C21.4 109.54 24.53 110.37 27.3 112.01C30.07 113.66 32.25 115.93 33.85 118.81C35.45 121.69 36.25 124.92 36.25 128.49C36.25 132.06 35.46 135.28 33.87 138.16C32.29 141.04 30.1 143.31 27.32 144.96C24.54 146.61 21.43 147.43 17.99 147.43C14.55 147.43 11.52 146.61 8.78999 144.96C6.05999 143.31 3.90999 141.04 2.33999 138.16C0.76999 135.28 -0.0100098 132.05 -0.0100098 128.49C-0.0100098 124.93 0.76999 121.7 2.33999 118.81H2.34999ZM9.09999 133.21C9.99999 134.69 11.24 135.87 12.83 136.74C14.41 137.61 16.15 138.04 18.06 138.04C19.97 138.04 21.75 137.6 23.33 136.71C24.91 135.83 26.16 134.65 27.08 133.18C28 131.71 28.46 130.11 28.46 128.38C28.46 126.65 28 125.05 27.08 123.61C26.16 122.16 24.91 121.02 23.33 120.18C21.75 119.35 19.99 118.93 18.06 118.93C16.13 118.93 14.42 119.35 12.83 120.18C11.25 121.01 9.99999 122.16 9.09999 123.61C8.19999 125.06 7.74999 126.65 7.74999 128.38C7.74999 130.11 8.19999 131.72 9.09999 133.21Z" fill="#D9D9D9"/>
</g>
<defs>
<clipPath id="clip0_10120_361">
<rect width="372" height="193" fill="white"/>
</clipPath>
</defs>
</svg>
