<svg width="372" height="172" viewBox="0 0 372 172" fill="none" xmlns="http://www.w3.org/2000/svg">
<path d="M192.665 91.0754L176.545 76.7454C171.465 72.2354 171.015 64.4654 175.525 59.3854L175.895 58.9654L196.455 77.2354L223.315 46.5454C227.945 41.2554 235.995 40.7154 241.285 45.3454L241.375 45.4254L201.945 90.4954C199.555 93.2254 195.395 93.4954 192.675 91.0754H192.665Z" fill="#71D2C1"/>
<path d="M179.525 37.8654L195.645 52.1954C200.725 56.7054 201.175 64.4754 196.665 69.5554L196.295 69.9754L175.735 51.7054L148.875 82.3954C144.245 87.6854 136.195 88.2254 130.905 83.5954L130.815 83.5154L170.245 38.4454C172.635 35.7154 176.795 35.4454 179.515 37.8654H179.525Z" fill="#076293"/>
<path d="M169.93 105.36C168.16 104.58 166.35 104.19 164.48 104.19C162.01 104.19 159.75 104.79 157.68 105.99C155.61 107.19 153.98 108.82 152.78 110.87C151.58 112.92 150.98 115.18 150.98 117.64C150.98 120.1 151.58 122.32 152.78 124.39C153.98 126.46 155.61 128.09 157.68 129.29C159.75 130.49 162.01 131.09 164.48 131.09C166.31 131.09 168.11 130.71 169.88 129.97C171.65 129.22 173.21 128.2 174.58 126.89L177.48 130.04C175.71 131.77 173.66 133.13 171.33 134.12C169 135.11 166.63 135.59 164.23 135.59C160.9 135.59 157.85 134.8 155.08 133.21C152.31 131.63 150.13 129.47 148.53 126.73C146.93 124 146.13 120.98 146.13 117.68C146.13 114.38 146.94 111.42 148.55 108.7C150.17 105.98 152.38 103.84 155.17 102.27C157.97 100.7 161.05 99.92 164.42 99.92C166.85 99.92 169.21 100.38 171.5 101.3C173.78 102.22 175.76 103.51 177.42 105.18L174.57 108.63C173.24 107.23 171.69 106.14 169.92 105.36H169.93Z" fill="#71D2C1"/>
<path d="M182.07 100.24H206.37V104.59H186.87V115.39H204.32V119.74H186.87V130.89H206.97V135.24H182.07V100.24Z" fill="#71D2C1"/>
<path d="M236 135.24L229.05 124.24C228.25 124.31 227.6 124.34 227.1 124.34H218.2V135.24H213.4V100.24H227.1C231.53 100.24 234.96 101.26 237.37 103.32C239.79 105.37 240.99 108.28 240.99 112.04C240.99 114.87 240.33 117.26 239.02 119.19C237.7 121.12 235.81 122.52 233.35 123.39L241.5 135.24H236ZM227.1 119.99C230.1 119.99 232.4 119.33 234 118.01C235.6 116.69 236.4 114.75 236.4 112.19C236.4 109.63 235.6 107.8 234 106.51C232.4 105.23 230.1 104.59 227.1 104.59H218.2V119.99H227.1Z" fill="#71D2C1"/>
<path d="M243.95 100.24H271.3V104.64H260V135.24H255.2V104.64H243.95V100.24Z" fill="#71D2C1"/>
<path d="M283.41 128.51C285.19 130.33 287.65 131.24 290.79 131.24C293.93 131.24 296.32 130.33 298.09 128.51C299.86 126.69 300.74 124.17 300.74 120.94V100.24H305.54V120.94C305.54 125.51 304.23 129.09 301.62 131.69C299 134.29 295.4 135.59 290.79 135.59C286.18 135.59 282.52 134.29 279.89 131.69C277.26 129.09 275.94 125.51 275.94 120.94V100.24H280.74V120.94C280.74 124.17 281.63 126.7 283.41 128.51Z" fill="#71D2C1"/>
<path d="M328.18 105.21C326.43 104.69 324.82 104.44 323.35 104.44C321.32 104.44 319.69 104.83 318.47 105.61C317.25 106.39 316.64 107.47 316.64 108.84C316.64 110.07 317.01 111.08 317.74 111.86C318.47 112.64 319.37 113.26 320.44 113.71C321.51 114.16 322.99 114.69 324.89 115.28C327.26 116.01 329.17 116.71 330.64 117.38C332.11 118.05 333.36 119.04 334.39 120.36C335.42 121.68 335.94 123.42 335.94 125.59C335.94 127.59 335.4 129.34 334.32 130.84C333.24 132.34 331.72 133.5 329.77 134.32C327.82 135.14 325.58 135.54 323.05 135.54C320.52 135.54 317.98 135.04 315.55 134.04C313.12 133.04 311.02 131.71 309.25 130.04L311.4 125.89C313.07 127.52 314.94 128.78 317.02 129.66C319.1 130.54 321.13 130.99 323.1 130.99C325.43 130.99 327.27 130.53 328.63 129.61C329.98 128.69 330.65 127.45 330.65 125.88C330.65 124.65 330.28 123.63 329.55 122.83C328.82 122.03 327.89 121.4 326.77 120.93C325.65 120.46 324.15 119.95 322.25 119.38C319.92 118.68 318.02 118 316.55 117.33C315.08 116.66 313.84 115.68 312.83 114.38C311.81 113.08 311.3 111.36 311.3 109.23C311.3 107.36 311.82 105.71 312.85 104.28C313.88 102.85 315.33 101.75 317.2 100.98C319.07 100.21 321.23 99.83 323.7 99.83C325.8 99.83 327.86 100.14 329.87 100.75C331.89 101.37 333.68 102.19 335.25 103.23L333.25 107.53C331.62 106.5 329.92 105.72 328.17 105.21H328.18Z" fill="#71D2C1"/>
<path d="M62.46 103.41C64.93 105.56 66.16 108.59 66.16 112.49C66.16 116.62 64.93 119.83 62.46 122.11C59.99 124.39 56.53 125.53 52.06 125.53H45.81V135.23H36.66V100.18H52.06C56.53 100.18 59.99 101.25 62.46 103.4V103.41ZM55.93 116.84C56.95 115.91 57.46 114.56 57.46 112.79C57.46 111.02 56.95 109.78 55.93 108.87C54.91 107.95 53.47 107.49 51.6 107.49H45.8V118.24H51.6C53.47 118.24 54.91 117.77 55.93 116.84Z" fill="#076293"/>
<path d="M91.5001 135.24L86.4001 125.54H79.6001V135.24H70.4501V100.19H86.2001C90.8301 100.19 94.4201 101.26 96.9701 103.41C99.5201 105.56 100.8 108.59 100.8 112.49C100.8 115.12 100.27 117.4 99.2001 119.32C98.1301 121.24 96.5801 122.73 94.5501 123.79L101.85 135.24H91.5001ZM79.6001 118.24H86.2501C88.1201 118.24 89.5601 117.77 90.5801 116.84C91.6001 115.91 92.1001 114.56 92.1001 112.79C92.1001 111.02 91.5901 109.78 90.5801 108.87C89.5601 107.95 88.1201 107.49 86.2501 107.49H79.6001V118.24Z" fill="#076293"/>
<path d="M132.81 101.99C135.69 103.56 137.96 105.71 139.61 108.44C141.26 111.17 142.08 114.24 142.08 117.64C142.08 121.04 141.25 124.17 139.61 126.94C137.96 129.71 135.69 131.89 132.81 133.49C129.93 135.09 126.7 135.89 123.13 135.89C119.56 135.89 116.34 135.1 113.46 133.51C110.58 131.93 108.31 129.74 106.66 126.96C105.01 124.18 104.19 121.07 104.19 117.63C104.19 114.19 105.01 111.16 106.66 108.43C108.31 105.7 110.58 103.55 113.46 101.98C116.34 100.41 119.57 99.63 123.13 99.63C126.69 99.63 129.92 100.41 132.81 101.98V101.99ZM118.41 108.74C116.93 109.64 115.75 110.88 114.88 112.47C114.01 114.05 113.58 115.79 113.58 117.7C113.58 119.61 114.02 121.39 114.91 122.97C115.79 124.55 116.97 125.8 118.44 126.72C119.91 127.64 121.51 128.1 123.24 128.1C124.97 128.1 126.57 127.64 128.01 126.72C129.46 125.8 130.6 124.55 131.44 122.97C132.27 121.39 132.69 119.63 132.69 117.7C132.69 115.77 132.27 114.06 131.44 112.47C130.61 110.89 129.46 109.64 128.01 108.74C126.56 107.84 124.97 107.39 123.24 107.39C121.51 107.39 119.9 107.84 118.41 108.74Z" fill="#076293"/>
</svg>
